M48
;Layer_Color=9474304
;FILE_FORMAT=2:5
INCH,LZ
;TYPE=PLATED
T01F00S00C0.00787
%
T01
X0006299Y0006693
X0004921Y0008268
X0006299Y0009843
X0004921Y0011417
X0006299Y0012992
X0004921Y0014567
X0006299Y0016142
X0004921Y0017717
X0006299Y0019291
X0004921Y0020866
X0026378Y0042323
X0027953Y0040945
X0029528Y0042323
X0031102Y0040945
X0032677Y0042323
X0034252Y0040945
X0035827Y0042323
X0037402Y0040945
X0038976Y0042323
X0040551Y0040945
M30
