G04*
G04 #@! TF.GenerationSoftware,Altium Limited,Altium Designer,26.3.0 (6)*
G04*
G04 Layer_Color=65535*
%FSLAX44Y44*%
%MOMM*%
G71*
G04*
G04 #@! TF.SameCoordinates,D98659AE-797A-407F-9924-57214BFE1277*
G04*
G04*
G04 #@! TF.FilePolarity,Positive*
G04*
G01*
G75*
G36*
X70028Y63995D02*
X68311D01*
Y65582D01*
X70028D01*
Y63995D01*
D02*
G37*
G36*
X54729D02*
X53012D01*
Y65582D01*
X54729D01*
Y63995D01*
D02*
G37*
G36*
X103604Y65725D02*
X103650D01*
X103708Y65718D01*
X103766D01*
X103909Y65699D01*
X104064Y65679D01*
X104246Y65647D01*
X104440Y65608D01*
X104647Y65556D01*
X104867Y65491D01*
X105088Y65414D01*
X105314Y65317D01*
X105534Y65206D01*
X105755Y65077D01*
X105962Y64928D01*
X106163Y64753D01*
X106169Y64746D01*
X106189Y64727D01*
X106221Y64695D01*
X106260Y64649D01*
X106312Y64591D01*
X106370Y64513D01*
X106435Y64429D01*
X106506Y64332D01*
X106577Y64222D01*
X106655Y64099D01*
X106733Y63963D01*
X106811Y63820D01*
X106882Y63658D01*
X106953Y63490D01*
X107024Y63302D01*
X107083Y63108D01*
X105288Y62680D01*
Y62687D01*
X105282Y62713D01*
X105269Y62745D01*
X105256Y62797D01*
X105237Y62855D01*
X105211Y62920D01*
X105178Y62998D01*
X105146Y63075D01*
X105055Y63250D01*
X104997Y63341D01*
X104939Y63432D01*
X104874Y63522D01*
X104796Y63613D01*
X104712Y63697D01*
X104621Y63775D01*
X104615Y63781D01*
X104602Y63794D01*
X104570Y63814D01*
X104531Y63840D01*
X104485Y63872D01*
X104427Y63905D01*
X104356Y63943D01*
X104284Y63982D01*
X104194Y64015D01*
X104103Y64054D01*
X104000Y64086D01*
X103896Y64118D01*
X103779Y64144D01*
X103656Y64164D01*
X103533Y64177D01*
X103397Y64183D01*
X103352D01*
X103300Y64177D01*
X103235Y64170D01*
X103151Y64164D01*
X103054Y64144D01*
X102944Y64125D01*
X102827Y64092D01*
X102698Y64054D01*
X102568Y64008D01*
X102432Y63950D01*
X102296Y63879D01*
X102167Y63794D01*
X102030Y63704D01*
X101907Y63594D01*
X101784Y63464D01*
X101778Y63458D01*
X101758Y63432D01*
X101726Y63386D01*
X101687Y63328D01*
X101642Y63250D01*
X101590Y63153D01*
X101532Y63043D01*
X101480Y62907D01*
X101422Y62758D01*
X101363Y62583D01*
X101312Y62395D01*
X101266Y62188D01*
X101227Y61955D01*
X101195Y61709D01*
X101175Y61437D01*
X101169Y61145D01*
Y61139D01*
Y61126D01*
Y61100D01*
Y61074D01*
Y61029D01*
X101175Y60983D01*
Y60932D01*
X101182Y60867D01*
X101188Y60731D01*
X101201Y60569D01*
X101221Y60394D01*
X101247Y60206D01*
X101279Y60012D01*
X101318Y59811D01*
X101370Y59610D01*
X101428Y59409D01*
X101493Y59222D01*
X101577Y59040D01*
X101668Y58878D01*
X101778Y58729D01*
X101784Y58723D01*
X101804Y58697D01*
X101843Y58665D01*
X101888Y58619D01*
X101946Y58561D01*
X102024Y58503D01*
X102108Y58438D01*
X102205Y58373D01*
X102316Y58302D01*
X102432Y58237D01*
X102562Y58179D01*
X102704Y58120D01*
X102853Y58075D01*
X103015Y58043D01*
X103183Y58017D01*
X103365Y58010D01*
X103436D01*
X103488Y58017D01*
X103546Y58023D01*
X103617Y58036D01*
X103701Y58049D01*
X103792Y58069D01*
X103883Y58088D01*
X103980Y58120D01*
X104084Y58159D01*
X104187Y58205D01*
X104297Y58257D01*
X104401Y58315D01*
X104505Y58386D01*
X104602Y58464D01*
X104608Y58470D01*
X104628Y58483D01*
X104654Y58516D01*
X104686Y58555D01*
X104731Y58600D01*
X104783Y58665D01*
X104835Y58736D01*
X104893Y58820D01*
X104952Y58911D01*
X105016Y59021D01*
X105081Y59137D01*
X105139Y59267D01*
X105198Y59416D01*
X105256Y59565D01*
X105308Y59733D01*
X105353Y59915D01*
X107108Y59358D01*
Y59351D01*
X107102Y59338D01*
X107095Y59319D01*
X107089Y59293D01*
X107076Y59261D01*
X107063Y59215D01*
X107031Y59118D01*
X106985Y58995D01*
X106927Y58852D01*
X106862Y58697D01*
X106785Y58535D01*
X106700Y58360D01*
X106603Y58179D01*
X106493Y57997D01*
X106370Y57816D01*
X106234Y57641D01*
X106092Y57473D01*
X105930Y57317D01*
X105761Y57175D01*
X105748Y57168D01*
X105716Y57143D01*
X105664Y57110D01*
X105593Y57065D01*
X105502Y57013D01*
X105392Y56948D01*
X105262Y56883D01*
X105113Y56819D01*
X104952Y56754D01*
X104770Y56689D01*
X104576Y56631D01*
X104362Y56572D01*
X104142Y56527D01*
X103902Y56495D01*
X103650Y56469D01*
X103384Y56462D01*
X103306D01*
X103261Y56469D01*
X103209D01*
X103151Y56475D01*
X103086Y56482D01*
X103015Y56488D01*
X102937Y56501D01*
X102756Y56527D01*
X102562Y56566D01*
X102348Y56618D01*
X102121Y56676D01*
X101882Y56760D01*
X101642Y56858D01*
X101389Y56974D01*
X101150Y57117D01*
X100904Y57278D01*
X100787Y57369D01*
X100670Y57466D01*
X100560Y57570D01*
X100450Y57680D01*
Y57687D01*
X100437Y57693D01*
X100424Y57712D01*
X100398Y57738D01*
X100372Y57771D01*
X100346Y57810D01*
X100308Y57855D01*
X100269Y57907D01*
X100230Y57965D01*
X100184Y58030D01*
X100139Y58101D01*
X100087Y58179D01*
X99984Y58354D01*
X99880Y58555D01*
X99770Y58781D01*
X99666Y59027D01*
X99569Y59306D01*
X99485Y59604D01*
X99407Y59921D01*
X99355Y60264D01*
X99317Y60627D01*
X99310Y60821D01*
X99304Y61016D01*
Y61022D01*
Y61042D01*
Y61074D01*
Y61113D01*
X99310Y61165D01*
Y61230D01*
X99317Y61301D01*
X99323Y61385D01*
X99330Y61476D01*
X99336Y61573D01*
X99349Y61676D01*
X99362Y61786D01*
X99401Y62026D01*
X99446Y62285D01*
X99511Y62564D01*
X99582Y62849D01*
X99679Y63134D01*
X99789Y63425D01*
X99925Y63710D01*
X100074Y63982D01*
X100256Y64248D01*
X100353Y64371D01*
X100457Y64487D01*
X100463Y64494D01*
X100470Y64500D01*
X100489Y64520D01*
X100508Y64539D01*
X100573Y64604D01*
X100664Y64682D01*
X100780Y64779D01*
X100923Y64882D01*
X101085Y64993D01*
X101266Y65109D01*
X101474Y65226D01*
X101707Y65336D01*
X101953Y65446D01*
X102225Y65537D01*
X102516Y65614D01*
X102821Y65679D01*
X103151Y65718D01*
X103319Y65725D01*
X103494Y65731D01*
X103566D01*
X103604Y65725D01*
D02*
G37*
G36*
X94563D02*
X94608D01*
X94666Y65718D01*
X94724D01*
X94867Y65699D01*
X95022Y65679D01*
X95204Y65647D01*
X95398Y65608D01*
X95605Y65556D01*
X95826Y65491D01*
X96046Y65414D01*
X96272Y65317D01*
X96493Y65206D01*
X96713Y65077D01*
X96920Y64928D01*
X97121Y64753D01*
X97127Y64746D01*
X97147Y64727D01*
X97179Y64695D01*
X97218Y64649D01*
X97270Y64591D01*
X97328Y64513D01*
X97393Y64429D01*
X97464Y64332D01*
X97535Y64222D01*
X97613Y64099D01*
X97691Y63963D01*
X97769Y63820D01*
X97840Y63658D01*
X97911Y63490D01*
X97982Y63302D01*
X98041Y63108D01*
X96247Y62680D01*
Y62687D01*
X96240Y62713D01*
X96227Y62745D01*
X96214Y62797D01*
X96195Y62855D01*
X96169Y62920D01*
X96136Y62998D01*
X96104Y63075D01*
X96013Y63250D01*
X95955Y63341D01*
X95897Y63432D01*
X95832Y63522D01*
X95754Y63613D01*
X95670Y63697D01*
X95579Y63775D01*
X95573Y63781D01*
X95560Y63794D01*
X95528Y63814D01*
X95489Y63840D01*
X95443Y63872D01*
X95385Y63905D01*
X95314Y63943D01*
X95243Y63982D01*
X95152Y64015D01*
X95061Y64054D01*
X94958Y64086D01*
X94854Y64118D01*
X94737Y64144D01*
X94614Y64164D01*
X94491Y64177D01*
X94355Y64183D01*
X94310D01*
X94258Y64177D01*
X94193Y64170D01*
X94109Y64164D01*
X94012Y64144D01*
X93902Y64125D01*
X93785Y64092D01*
X93656Y64054D01*
X93526Y64008D01*
X93390Y63950D01*
X93254Y63879D01*
X93125Y63794D01*
X92989Y63704D01*
X92865Y63594D01*
X92743Y63464D01*
X92736Y63458D01*
X92717Y63432D01*
X92684Y63386D01*
X92645Y63328D01*
X92600Y63250D01*
X92548Y63153D01*
X92490Y63043D01*
X92438Y62907D01*
X92380Y62758D01*
X92322Y62583D01*
X92270Y62395D01*
X92224Y62188D01*
X92185Y61955D01*
X92153Y61709D01*
X92134Y61437D01*
X92127Y61145D01*
Y61139D01*
Y61126D01*
Y61100D01*
Y61074D01*
Y61029D01*
X92134Y60983D01*
Y60932D01*
X92140Y60867D01*
X92147Y60731D01*
X92160Y60569D01*
X92179Y60394D01*
X92205Y60206D01*
X92237Y60012D01*
X92276Y59811D01*
X92328Y59610D01*
X92386Y59409D01*
X92451Y59222D01*
X92535Y59040D01*
X92626Y58878D01*
X92736Y58729D01*
X92743Y58723D01*
X92762Y58697D01*
X92801Y58665D01*
X92846Y58619D01*
X92904Y58561D01*
X92982Y58503D01*
X93066Y58438D01*
X93163Y58373D01*
X93274Y58302D01*
X93390Y58237D01*
X93520Y58179D01*
X93662Y58120D01*
X93811Y58075D01*
X93973Y58043D01*
X94142Y58017D01*
X94323Y58010D01*
X94394D01*
X94446Y58017D01*
X94504Y58023D01*
X94576Y58036D01*
X94660Y58049D01*
X94750Y58069D01*
X94841Y58088D01*
X94938Y58120D01*
X95042Y58159D01*
X95145Y58205D01*
X95255Y58257D01*
X95359Y58315D01*
X95463Y58386D01*
X95560Y58464D01*
X95566Y58470D01*
X95586Y58483D01*
X95612Y58516D01*
X95644Y58555D01*
X95689Y58600D01*
X95741Y58665D01*
X95793Y58736D01*
X95851Y58820D01*
X95910Y58911D01*
X95975Y59021D01*
X96039Y59137D01*
X96097Y59267D01*
X96156Y59416D01*
X96214Y59565D01*
X96266Y59733D01*
X96311Y59915D01*
X98067Y59358D01*
Y59351D01*
X98060Y59338D01*
X98054Y59319D01*
X98047Y59293D01*
X98034Y59261D01*
X98021Y59215D01*
X97989Y59118D01*
X97943Y58995D01*
X97885Y58852D01*
X97820Y58697D01*
X97743Y58535D01*
X97659Y58360D01*
X97561Y58179D01*
X97451Y57997D01*
X97328Y57816D01*
X97192Y57641D01*
X97050Y57473D01*
X96888Y57317D01*
X96719Y57175D01*
X96706Y57168D01*
X96674Y57143D01*
X96622Y57110D01*
X96551Y57065D01*
X96460Y57013D01*
X96350Y56948D01*
X96221Y56883D01*
X96072Y56819D01*
X95910Y56754D01*
X95728Y56689D01*
X95534Y56631D01*
X95320Y56572D01*
X95100Y56527D01*
X94860Y56495D01*
X94608Y56469D01*
X94342Y56462D01*
X94265D01*
X94219Y56469D01*
X94167D01*
X94109Y56475D01*
X94044Y56482D01*
X93973Y56488D01*
X93895Y56501D01*
X93714Y56527D01*
X93520Y56566D01*
X93306Y56618D01*
X93079Y56676D01*
X92840Y56760D01*
X92600Y56858D01*
X92347Y56974D01*
X92108Y57117D01*
X91862Y57278D01*
X91745Y57369D01*
X91628Y57466D01*
X91518Y57570D01*
X91408Y57680D01*
Y57687D01*
X91395Y57693D01*
X91382Y57712D01*
X91356Y57738D01*
X91330Y57771D01*
X91305Y57810D01*
X91266Y57855D01*
X91227Y57907D01*
X91188Y57965D01*
X91143Y58030D01*
X91097Y58101D01*
X91046Y58179D01*
X90942Y58354D01*
X90838Y58555D01*
X90728Y58781D01*
X90625Y59027D01*
X90527Y59306D01*
X90443Y59604D01*
X90365Y59921D01*
X90314Y60264D01*
X90275Y60627D01*
X90268Y60821D01*
X90262Y61016D01*
Y61022D01*
Y61042D01*
Y61074D01*
Y61113D01*
X90268Y61165D01*
Y61230D01*
X90275Y61301D01*
X90281Y61385D01*
X90288Y61476D01*
X90294Y61573D01*
X90307Y61676D01*
X90320Y61786D01*
X90359Y62026D01*
X90404Y62285D01*
X90469Y62564D01*
X90540Y62849D01*
X90637Y63134D01*
X90747Y63425D01*
X90884Y63710D01*
X91032Y63982D01*
X91214Y64248D01*
X91311Y64371D01*
X91415Y64487D01*
X91421Y64494D01*
X91428Y64500D01*
X91447Y64520D01*
X91467Y64539D01*
X91531Y64604D01*
X91622Y64682D01*
X91739Y64779D01*
X91881Y64882D01*
X92043Y64993D01*
X92224Y65109D01*
X92432Y65226D01*
X92665Y65336D01*
X92911Y65446D01*
X93183Y65537D01*
X93474Y65614D01*
X93779Y65679D01*
X94109Y65718D01*
X94277Y65725D01*
X94452Y65731D01*
X94524D01*
X94563Y65725D01*
D02*
G37*
G36*
X60357Y63250D02*
X60416Y63244D01*
X60480Y63237D01*
X60552Y63231D01*
X60714Y63205D01*
X60889Y63173D01*
X61063Y63121D01*
X61245Y63050D01*
X61251D01*
X61264Y63043D01*
X61290Y63030D01*
X61322Y63011D01*
X61361Y62991D01*
X61407Y62965D01*
X61510Y62907D01*
X61627Y62829D01*
X61743Y62739D01*
X61860Y62642D01*
X61957Y62525D01*
Y62518D01*
X61970Y62512D01*
X61983Y62492D01*
X61996Y62467D01*
X62042Y62402D01*
X62093Y62318D01*
X62152Y62207D01*
X62203Y62091D01*
X62255Y61955D01*
X62301Y61806D01*
Y61800D01*
X62307Y61786D01*
Y61767D01*
X62313Y61735D01*
X62326Y61689D01*
X62333Y61638D01*
X62339Y61579D01*
X62352Y61508D01*
X62359Y61430D01*
X62365Y61346D01*
X62378Y61249D01*
X62385Y61145D01*
X62391Y61035D01*
Y60912D01*
X62398Y60783D01*
Y60647D01*
Y56618D01*
X60681D01*
Y59928D01*
Y59941D01*
Y59973D01*
Y60025D01*
Y60096D01*
X60675Y60180D01*
Y60277D01*
Y60381D01*
X60668Y60491D01*
X60655Y60718D01*
X60642Y60834D01*
X60630Y60944D01*
X60616Y61048D01*
X60604Y61139D01*
X60584Y61223D01*
X60565Y61288D01*
Y61294D01*
X60558Y61301D01*
X60545Y61340D01*
X60519Y61398D01*
X60480Y61463D01*
X60429Y61540D01*
X60370Y61625D01*
X60293Y61696D01*
X60209Y61767D01*
X60195Y61774D01*
X60163Y61793D01*
X60111Y61825D01*
X60040Y61858D01*
X59956Y61884D01*
X59852Y61916D01*
X59736Y61936D01*
X59613Y61942D01*
X59567D01*
X59535Y61936D01*
X59496D01*
X59451Y61929D01*
X59341Y61910D01*
X59218Y61884D01*
X59082Y61838D01*
X58939Y61780D01*
X58803Y61696D01*
X58797D01*
X58790Y61683D01*
X58771Y61670D01*
X58745Y61651D01*
X58686Y61599D01*
X58609Y61521D01*
X58531Y61430D01*
X58447Y61314D01*
X58376Y61184D01*
X58317Y61042D01*
Y61035D01*
X58311Y61022D01*
X58304Y60996D01*
X58298Y60964D01*
X58285Y60919D01*
X58278Y60860D01*
X58265Y60789D01*
X58252Y60705D01*
X58239Y60608D01*
X58226Y60504D01*
X58220Y60381D01*
X58207Y60245D01*
X58201Y60096D01*
X58194Y59928D01*
X58188Y59746D01*
Y59552D01*
Y56618D01*
X56471D01*
Y63114D01*
X58065D01*
Y62156D01*
X58078Y62169D01*
X58103Y62201D01*
X58149Y62259D01*
X58220Y62331D01*
X58304Y62408D01*
X58401Y62505D01*
X58518Y62603D01*
X58654Y62706D01*
X58797Y62810D01*
X58958Y62907D01*
X59140Y63004D01*
X59328Y63082D01*
X59528Y63153D01*
X59742Y63211D01*
X59969Y63244D01*
X60209Y63257D01*
X60306D01*
X60357Y63250D01*
D02*
G37*
G36*
X50014Y56618D02*
X48369D01*
X47248Y60795D01*
X46147Y56618D01*
X44482D01*
X42429Y63114D01*
X44094D01*
X45311Y58852D01*
X46432Y63114D01*
X48084D01*
X49165Y58852D01*
X50409Y63114D01*
X52106D01*
X50014Y56618D01*
D02*
G37*
G36*
X89083Y64066D02*
X84743D01*
Y61942D01*
X88487D01*
Y60426D01*
X84743D01*
Y56618D01*
X82936D01*
Y65582D01*
X89083D01*
Y64066D01*
D02*
G37*
G36*
X70028Y56618D02*
X68311D01*
Y63114D01*
X70028D01*
Y56618D01*
D02*
G37*
G36*
X54729D02*
X53012D01*
Y63114D01*
X54729D01*
Y56618D01*
D02*
G37*
G36*
X42125Y64066D02*
X39469D01*
Y56618D01*
X37662D01*
Y64066D01*
X35000D01*
Y65582D01*
X42125D01*
Y64066D01*
D02*
G37*
G36*
X65934Y63114D02*
X67106D01*
Y61748D01*
X65934D01*
Y59124D01*
Y59118D01*
Y59092D01*
Y59053D01*
Y58995D01*
Y58937D01*
Y58865D01*
X65941Y58710D01*
Y58548D01*
X65947Y58470D01*
Y58393D01*
X65954Y58328D01*
Y58270D01*
X65960Y58224D01*
X65967Y58192D01*
Y58185D01*
X65973Y58172D01*
X65986Y58146D01*
X65999Y58114D01*
X66018Y58082D01*
X66044Y58049D01*
X66077Y58010D01*
X66115Y57978D01*
X66122Y57972D01*
X66135Y57965D01*
X66161Y57952D01*
X66200Y57939D01*
X66239Y57920D01*
X66290Y57907D01*
X66349Y57900D01*
X66407Y57894D01*
X66452D01*
X66504Y57900D01*
X66582Y57913D01*
X66679Y57933D01*
X66802Y57965D01*
X66938Y58004D01*
X67100Y58056D01*
X67249Y56722D01*
X67242D01*
X67223Y56708D01*
X67191Y56696D01*
X67145Y56683D01*
X67087Y56663D01*
X67016Y56644D01*
X66938Y56618D01*
X66854Y56598D01*
X66757Y56572D01*
X66653Y56547D01*
X66543Y56527D01*
X66420Y56508D01*
X66167Y56482D01*
X65889Y56469D01*
X65811D01*
X65772Y56475D01*
X65727D01*
X65610Y56488D01*
X65481Y56508D01*
X65345Y56534D01*
X65196Y56572D01*
X65053Y56624D01*
X65047D01*
X65040Y56631D01*
X65021Y56637D01*
X64995Y56650D01*
X64930Y56689D01*
X64846Y56734D01*
X64755Y56793D01*
X64671Y56858D01*
X64580Y56935D01*
X64509Y57026D01*
X64503Y57039D01*
X64483Y57071D01*
X64451Y57130D01*
X64412Y57201D01*
X64373Y57298D01*
X64334Y57414D01*
X64296Y57551D01*
X64270Y57699D01*
Y57706D01*
Y57712D01*
X64263Y57732D01*
Y57758D01*
X64257Y57797D01*
Y57842D01*
X64250Y57900D01*
X64244Y57965D01*
X64237Y58036D01*
Y58127D01*
X64231Y58224D01*
X64224Y58334D01*
Y58457D01*
X64218Y58600D01*
Y58749D01*
Y58911D01*
Y61748D01*
X63428D01*
Y63114D01*
X64218D01*
Y64403D01*
X65934Y65414D01*
Y63114D01*
D02*
G37*
G36*
X74257Y63250D02*
X74341Y63237D01*
X74445Y63224D01*
X74562Y63198D01*
X74697Y63166D01*
X74840Y63127D01*
X74995Y63069D01*
X75157Y62998D01*
X75319Y62913D01*
X75488Y62810D01*
X75656Y62687D01*
X75818Y62544D01*
X75980Y62382D01*
X76129Y62195D01*
Y63114D01*
X77735D01*
Y57278D01*
Y57266D01*
Y57227D01*
Y57168D01*
Y57091D01*
X77729Y57000D01*
X77722Y56890D01*
Y56767D01*
X77709Y56637D01*
X77703Y56501D01*
X77690Y56359D01*
X77651Y56074D01*
X77632Y55938D01*
X77606Y55808D01*
X77573Y55679D01*
X77541Y55569D01*
Y55562D01*
X77534Y55543D01*
X77522Y55517D01*
X77509Y55478D01*
X77489Y55426D01*
X77463Y55374D01*
X77405Y55245D01*
X77327Y55102D01*
X77236Y54953D01*
X77133Y54804D01*
X77010Y54675D01*
X77003Y54668D01*
X76997Y54662D01*
X76977Y54642D01*
X76945Y54623D01*
X76913Y54597D01*
X76874Y54565D01*
X76822Y54526D01*
X76764Y54493D01*
X76705Y54448D01*
X76634Y54409D01*
X76479Y54325D01*
X76297Y54241D01*
X76090Y54170D01*
X76084D01*
X76064Y54163D01*
X76032Y54150D01*
X75986Y54144D01*
X75935Y54124D01*
X75863Y54111D01*
X75786Y54092D01*
X75695Y54079D01*
X75598Y54060D01*
X75488Y54040D01*
X75371Y54027D01*
X75242Y54014D01*
X75106Y54001D01*
X74957Y53988D01*
X74808Y53982D01*
X74536D01*
X74490Y53988D01*
X74380D01*
X74244Y54001D01*
X74089Y54014D01*
X73914Y54027D01*
X73733Y54053D01*
X73545Y54085D01*
X73350Y54124D01*
X73149Y54170D01*
X72962Y54221D01*
X72774Y54286D01*
X72599Y54364D01*
X72443Y54455D01*
X72301Y54552D01*
X72295Y54558D01*
X72269Y54578D01*
X72236Y54610D01*
X72191Y54655D01*
X72139Y54714D01*
X72081Y54778D01*
X72023Y54856D01*
X71958Y54947D01*
X71893Y55044D01*
X71835Y55154D01*
X71776Y55271D01*
X71725Y55400D01*
X71679Y55536D01*
X71647Y55679D01*
X71621Y55828D01*
X71614Y55990D01*
Y55996D01*
Y56009D01*
Y56022D01*
Y56048D01*
Y56113D01*
X71621Y56197D01*
X73583Y55957D01*
Y55951D01*
Y55944D01*
X73596Y55899D01*
X73609Y55841D01*
X73629Y55769D01*
X73661Y55692D01*
X73700Y55614D01*
X73745Y55543D01*
X73810Y55484D01*
X73823Y55478D01*
X73856Y55458D01*
X73914Y55426D01*
X73998Y55394D01*
X74102Y55355D01*
X74166Y55342D01*
X74238Y55329D01*
X74315Y55316D01*
X74393Y55303D01*
X74484Y55297D01*
X74646D01*
X74691Y55303D01*
X74749D01*
X74814Y55310D01*
X74885Y55316D01*
X74963Y55322D01*
X75125Y55348D01*
X75293Y55387D01*
X75449Y55433D01*
X75527Y55465D01*
X75591Y55504D01*
X75604Y55510D01*
X75630Y55530D01*
X75669Y55562D01*
X75721Y55608D01*
X75773Y55672D01*
X75831Y55743D01*
X75889Y55834D01*
X75935Y55938D01*
X75941Y55951D01*
X75948Y55983D01*
X75961Y56035D01*
X75967Y56074D01*
X75980Y56119D01*
X75986Y56164D01*
X75993Y56223D01*
X75999Y56287D01*
X76006Y56359D01*
X76012Y56437D01*
Y56527D01*
X76019Y56618D01*
Y56722D01*
X76025Y57674D01*
X76019Y57661D01*
X75993Y57628D01*
X75948Y57576D01*
X75883Y57512D01*
X75812Y57428D01*
X75714Y57337D01*
X75611Y57246D01*
X75488Y57149D01*
X75352Y57045D01*
X75209Y56955D01*
X75047Y56864D01*
X74872Y56786D01*
X74685Y56715D01*
X74490Y56663D01*
X74283Y56631D01*
X74069Y56618D01*
X74011D01*
X73946Y56624D01*
X73856Y56637D01*
X73745Y56650D01*
X73616Y56676D01*
X73473Y56708D01*
X73318Y56754D01*
X73156Y56812D01*
X72988Y56890D01*
X72819Y56974D01*
X72644Y57084D01*
X72470Y57207D01*
X72308Y57356D01*
X72146Y57525D01*
X71997Y57719D01*
X71990Y57732D01*
X71971Y57758D01*
X71945Y57810D01*
X71906Y57874D01*
X71861Y57959D01*
X71809Y58062D01*
X71757Y58185D01*
X71699Y58321D01*
X71640Y58470D01*
X71589Y58632D01*
X71537Y58814D01*
X71491Y59008D01*
X71459Y59209D01*
X71427Y59429D01*
X71407Y59656D01*
X71401Y59895D01*
Y59902D01*
Y59915D01*
Y59934D01*
Y59967D01*
Y60005D01*
X71407Y60051D01*
Y60103D01*
X71414Y60161D01*
X71427Y60303D01*
X71440Y60459D01*
X71466Y60634D01*
X71498Y60821D01*
X71543Y61016D01*
X71595Y61223D01*
X71653Y61430D01*
X71731Y61638D01*
X71822Y61838D01*
X71925Y62033D01*
X72048Y62221D01*
X72185Y62389D01*
X72191Y62402D01*
X72223Y62428D01*
X72262Y62467D01*
X72327Y62525D01*
X72405Y62590D01*
X72495Y62661D01*
X72599Y62745D01*
X72722Y62823D01*
X72858Y62907D01*
X73007Y62985D01*
X73169Y63056D01*
X73337Y63121D01*
X73525Y63179D01*
X73720Y63218D01*
X73927Y63250D01*
X74141Y63257D01*
X74192D01*
X74257Y63250D01*
D02*
G37*
G36*
X80559Y49857D02*
X80611Y49851D01*
X80669Y49844D01*
X80741Y49838D01*
X80818Y49825D01*
X80993Y49786D01*
X81187Y49728D01*
X81285Y49689D01*
X81388Y49643D01*
X81492Y49592D01*
X81595Y49533D01*
X81058Y48037D01*
X81052Y48044D01*
X81039Y48050D01*
X81013Y48063D01*
X80987Y48082D01*
X80948Y48102D01*
X80903Y48128D01*
X80792Y48180D01*
X80669Y48232D01*
X80533Y48277D01*
X80391Y48309D01*
X80320Y48322D01*
X80190D01*
X80119Y48309D01*
X80035Y48296D01*
X79937Y48270D01*
X79834Y48238D01*
X79730Y48186D01*
X79633Y48121D01*
X79620Y48115D01*
X79594Y48082D01*
X79549Y48031D01*
X79490Y47959D01*
X79432Y47856D01*
X79400Y47797D01*
X79367Y47733D01*
X79335Y47661D01*
X79303Y47584D01*
X79270Y47493D01*
X79244Y47402D01*
Y47396D01*
X79238Y47376D01*
X79231Y47344D01*
X79225Y47299D01*
X79212Y47234D01*
X79199Y47150D01*
X79186Y47053D01*
X79173Y46936D01*
X79160Y46800D01*
X79147Y46645D01*
X79134Y46463D01*
X79121Y46269D01*
X79115Y46042D01*
X79108Y45796D01*
X79102Y45524D01*
Y45382D01*
Y45226D01*
Y43225D01*
X77386D01*
Y49721D01*
X78979D01*
Y48795D01*
X78985Y48801D01*
X78998Y48821D01*
X79018Y48860D01*
X79050Y48899D01*
X79082Y48950D01*
X79128Y49015D01*
X79225Y49151D01*
X79335Y49294D01*
X79458Y49436D01*
X79523Y49501D01*
X79588Y49559D01*
X79652Y49611D01*
X79711Y49656D01*
X79717D01*
X79724Y49663D01*
X79743Y49676D01*
X79769Y49689D01*
X79840Y49721D01*
X79931Y49760D01*
X80041Y49799D01*
X80164Y49831D01*
X80307Y49857D01*
X80456Y49864D01*
X80514D01*
X80559Y49857D01*
D02*
G37*
G36*
X86019D02*
X86097Y49851D01*
X86194Y49838D01*
X86311Y49818D01*
X86434Y49792D01*
X86576Y49753D01*
X86725Y49708D01*
X86874Y49650D01*
X87036Y49579D01*
X87198Y49488D01*
X87360Y49391D01*
X87522Y49268D01*
X87684Y49132D01*
X87833Y48976D01*
X87839Y48963D01*
X87865Y48937D01*
X87904Y48886D01*
X87956Y48814D01*
X88014Y48724D01*
X88085Y48614D01*
X88157Y48484D01*
X88228Y48335D01*
X88299Y48167D01*
X88371Y47985D01*
X88442Y47778D01*
X88500Y47558D01*
X88552Y47318D01*
X88591Y47066D01*
X88617Y46794D01*
X88623Y46502D01*
Y46496D01*
Y46483D01*
Y46463D01*
Y46431D01*
Y46392D01*
X88617Y46347D01*
Y46295D01*
X88610Y46237D01*
X88597Y46101D01*
X88584Y45939D01*
X88558Y45764D01*
X88526Y45576D01*
X88481Y45375D01*
X88429Y45174D01*
X88364Y44961D01*
X88286Y44753D01*
X88196Y44546D01*
X88092Y44345D01*
X87969Y44151D01*
X87826Y43976D01*
X87820Y43963D01*
X87788Y43937D01*
X87749Y43892D01*
X87684Y43834D01*
X87606Y43769D01*
X87515Y43691D01*
X87405Y43607D01*
X87289Y43529D01*
X87153Y43445D01*
X87004Y43361D01*
X86848Y43283D01*
X86673Y43218D01*
X86499Y43160D01*
X86304Y43115D01*
X86103Y43089D01*
X85896Y43076D01*
X85844D01*
X85806Y43082D01*
X85754D01*
X85702Y43089D01*
X85637Y43095D01*
X85572Y43102D01*
X85417Y43128D01*
X85249Y43166D01*
X85080Y43218D01*
X84912Y43289D01*
X84905D01*
X84892Y43302D01*
X84866Y43315D01*
X84834Y43328D01*
X84795Y43354D01*
X84750Y43387D01*
X84698Y43419D01*
X84633Y43464D01*
X84497Y43562D01*
X84426Y43620D01*
X84342Y43691D01*
X84264Y43762D01*
X84173Y43840D01*
X84089Y43931D01*
X83998Y44021D01*
Y40757D01*
X82282D01*
Y49721D01*
X83882D01*
Y48763D01*
X83888Y48769D01*
X83895Y48782D01*
X83914Y48808D01*
X83940Y48847D01*
X83973Y48886D01*
X84011Y48937D01*
X84050Y48989D01*
X84102Y49048D01*
X84225Y49171D01*
X84368Y49307D01*
X84536Y49436D01*
X84724Y49559D01*
X84730Y49566D01*
X84750Y49572D01*
X84776Y49585D01*
X84815Y49605D01*
X84866Y49630D01*
X84925Y49656D01*
X84996Y49682D01*
X85074Y49715D01*
X85158Y49741D01*
X85249Y49767D01*
X85449Y49818D01*
X85670Y49851D01*
X85786Y49864D01*
X85961D01*
X86019Y49857D01*
D02*
G37*
G36*
X66498D02*
X66601Y49851D01*
X66718Y49838D01*
X66847Y49818D01*
X66983Y49799D01*
X67132Y49773D01*
X67281Y49741D01*
X67443Y49695D01*
X67599Y49643D01*
X67754Y49585D01*
X67910Y49514D01*
X68052Y49436D01*
X68188Y49345D01*
X68195Y49339D01*
X68221Y49320D01*
X68253Y49294D01*
X68305Y49248D01*
X68363Y49197D01*
X68428Y49132D01*
X68499Y49048D01*
X68577Y48957D01*
X68661Y48860D01*
X68745Y48743D01*
X68829Y48614D01*
X68907Y48471D01*
X68991Y48322D01*
X69069Y48160D01*
X69134Y47979D01*
X69199Y47791D01*
X67508Y47487D01*
Y47493D01*
X67502Y47506D01*
X67495Y47532D01*
X67489Y47571D01*
X67476Y47610D01*
X67463Y47661D01*
X67424Y47772D01*
X67372Y47895D01*
X67301Y48024D01*
X67217Y48141D01*
X67113Y48251D01*
X67106D01*
X67100Y48264D01*
X67081Y48277D01*
X67061Y48290D01*
X66990Y48335D01*
X66899Y48380D01*
X66789Y48426D01*
X66653Y48471D01*
X66498Y48497D01*
X66329Y48510D01*
X66265D01*
X66219Y48503D01*
X66167Y48497D01*
X66103Y48484D01*
X66031Y48471D01*
X65960Y48452D01*
X65876Y48432D01*
X65792Y48400D01*
X65708Y48368D01*
X65623Y48322D01*
X65539Y48270D01*
X65455Y48212D01*
X65377Y48141D01*
X65299Y48063D01*
X65293Y48057D01*
X65280Y48044D01*
X65267Y48018D01*
X65241Y47979D01*
X65209Y47927D01*
X65176Y47869D01*
X65144Y47797D01*
X65112Y47713D01*
X65073Y47616D01*
X65040Y47506D01*
X65008Y47383D01*
X64976Y47253D01*
X64950Y47105D01*
X64937Y46943D01*
X64924Y46768D01*
X64917Y46580D01*
Y46567D01*
Y46528D01*
Y46470D01*
X64924Y46392D01*
X64930Y46295D01*
X64937Y46191D01*
X64950Y46068D01*
X64969Y45945D01*
X65014Y45673D01*
X65047Y45537D01*
X65079Y45408D01*
X65125Y45278D01*
X65176Y45155D01*
X65235Y45045D01*
X65306Y44948D01*
X65312Y44941D01*
X65325Y44928D01*
X65345Y44902D01*
X65377Y44876D01*
X65416Y44837D01*
X65461Y44799D01*
X65520Y44753D01*
X65584Y44714D01*
X65656Y44669D01*
X65733Y44624D01*
X65818Y44585D01*
X65908Y44546D01*
X66012Y44520D01*
X66115Y44494D01*
X66232Y44481D01*
X66349Y44475D01*
X66394D01*
X66433Y44481D01*
X66472D01*
X66517Y44488D01*
X66634Y44507D01*
X66757Y44546D01*
X66893Y44591D01*
X67022Y44663D01*
X67087Y44701D01*
X67145Y44753D01*
X67152Y44760D01*
X67158Y44766D01*
X67178Y44786D01*
X67197Y44805D01*
X67223Y44837D01*
X67256Y44876D01*
X67288Y44922D01*
X67320Y44980D01*
X67359Y45038D01*
X67392Y45110D01*
X67430Y45187D01*
X67469Y45278D01*
X67502Y45369D01*
X67534Y45479D01*
X67566Y45589D01*
X67592Y45712D01*
X69283Y45427D01*
Y45414D01*
X69270Y45375D01*
X69250Y45317D01*
X69231Y45233D01*
X69199Y45135D01*
X69160Y45025D01*
X69114Y44902D01*
X69056Y44773D01*
X68991Y44630D01*
X68920Y44488D01*
X68836Y44339D01*
X68745Y44190D01*
X68642Y44047D01*
X68531Y43911D01*
X68408Y43782D01*
X68272Y43665D01*
X68266Y43659D01*
X68240Y43639D01*
X68195Y43613D01*
X68136Y43575D01*
X68059Y43529D01*
X67968Y43477D01*
X67864Y43425D01*
X67741Y43374D01*
X67605Y43315D01*
X67456Y43264D01*
X67294Y43212D01*
X67113Y43166D01*
X66925Y43128D01*
X66718Y43102D01*
X66498Y43082D01*
X66271Y43076D01*
X66206D01*
X66174Y43082D01*
X66135D01*
X66038Y43089D01*
X65915Y43102D01*
X65779Y43121D01*
X65623Y43154D01*
X65455Y43186D01*
X65273Y43238D01*
X65092Y43296D01*
X64898Y43367D01*
X64710Y43451D01*
X64522Y43555D01*
X64341Y43672D01*
X64166Y43814D01*
X63998Y43970D01*
X63991Y43983D01*
X63959Y44008D01*
X63920Y44060D01*
X63868Y44138D01*
X63803Y44229D01*
X63732Y44339D01*
X63654Y44468D01*
X63576Y44617D01*
X63499Y44786D01*
X63421Y44974D01*
X63350Y45181D01*
X63285Y45401D01*
X63233Y45641D01*
X63194Y45900D01*
X63162Y46172D01*
X63155Y46463D01*
Y46470D01*
Y46483D01*
Y46502D01*
Y46535D01*
X63162Y46573D01*
Y46619D01*
Y46670D01*
X63169Y46729D01*
X63181Y46865D01*
X63201Y47020D01*
X63227Y47189D01*
X63259Y47376D01*
X63305Y47577D01*
X63363Y47778D01*
X63434Y47985D01*
X63512Y48199D01*
X63609Y48400D01*
X63726Y48601D01*
X63855Y48788D01*
X64004Y48963D01*
X64017Y48976D01*
X64043Y49002D01*
X64095Y49048D01*
X64159Y49106D01*
X64244Y49171D01*
X64347Y49248D01*
X64470Y49332D01*
X64613Y49417D01*
X64768Y49495D01*
X64937Y49579D01*
X65125Y49656D01*
X65332Y49721D01*
X65552Y49780D01*
X65785Y49825D01*
X66038Y49851D01*
X66303Y49864D01*
X66420D01*
X66498Y49857D01*
D02*
G37*
G36*
X43647Y43225D02*
X41969D01*
X41963Y50278D01*
X40188Y43225D01*
X38446D01*
X36677Y50278D01*
Y43225D01*
X35000D01*
Y52189D01*
X37707D01*
X39327Y46068D01*
X40926Y52189D01*
X43647D01*
Y43225D01*
D02*
G37*
G36*
X98662D02*
X96946D01*
Y52189D01*
X98662D01*
Y43225D01*
D02*
G37*
G36*
X92710Y49857D02*
X92807D01*
X92917Y49851D01*
X93040Y49844D01*
X93170Y49831D01*
X93306Y49818D01*
X93448Y49799D01*
X93733Y49747D01*
X93869Y49721D01*
X94005Y49682D01*
X94129Y49637D01*
X94239Y49592D01*
X94245D01*
X94265Y49579D01*
X94291Y49566D01*
X94329Y49540D01*
X94375Y49514D01*
X94426Y49482D01*
X94550Y49404D01*
X94679Y49300D01*
X94809Y49184D01*
X94932Y49048D01*
X94984Y48976D01*
X95029Y48899D01*
Y48892D01*
X95042Y48879D01*
X95048Y48853D01*
X95068Y48814D01*
X95081Y48769D01*
X95100Y48704D01*
X95126Y48633D01*
X95145Y48549D01*
X95165Y48452D01*
X95191Y48335D01*
X95210Y48212D01*
X95223Y48070D01*
X95243Y47914D01*
X95249Y47746D01*
X95262Y47558D01*
Y47357D01*
X95236Y45356D01*
Y45349D01*
Y45317D01*
Y45272D01*
Y45213D01*
Y45142D01*
X95243Y45064D01*
Y44974D01*
X95249Y44876D01*
X95255Y44669D01*
X95268Y44462D01*
X95275Y44358D01*
X95288Y44261D01*
X95301Y44177D01*
X95314Y44093D01*
Y44086D01*
X95320Y44073D01*
Y44054D01*
X95333Y44021D01*
X95340Y43983D01*
X95353Y43937D01*
X95385Y43834D01*
X95424Y43704D01*
X95482Y43555D01*
X95547Y43393D01*
X95625Y43225D01*
X93928D01*
Y43231D01*
X93915Y43257D01*
X93902Y43296D01*
X93882Y43354D01*
X93856Y43425D01*
X93824Y43510D01*
X93792Y43613D01*
X93759Y43730D01*
Y43736D01*
X93753Y43756D01*
X93746Y43782D01*
X93733Y43814D01*
X93714Y43879D01*
X93708Y43905D01*
X93701Y43931D01*
X93695Y43924D01*
X93682Y43911D01*
X93656Y43892D01*
X93623Y43860D01*
X93584Y43827D01*
X93533Y43782D01*
X93481Y43736D01*
X93416Y43691D01*
X93280Y43587D01*
X93118Y43477D01*
X92943Y43380D01*
X92755Y43289D01*
X92749D01*
X92736Y43283D01*
X92704Y43270D01*
X92671Y43257D01*
X92619Y43238D01*
X92568Y43225D01*
X92503Y43205D01*
X92438Y43186D01*
X92360Y43160D01*
X92276Y43141D01*
X92095Y43108D01*
X91894Y43082D01*
X91687Y43076D01*
X91641D01*
X91590Y43082D01*
X91518D01*
X91434Y43095D01*
X91337Y43102D01*
X91233Y43121D01*
X91110Y43147D01*
X90987Y43173D01*
X90858Y43212D01*
X90728Y43251D01*
X90599Y43302D01*
X90469Y43367D01*
X90339Y43439D01*
X90216Y43523D01*
X90106Y43620D01*
X90100Y43626D01*
X90080Y43646D01*
X90055Y43678D01*
X90016Y43717D01*
X89970Y43769D01*
X89925Y43834D01*
X89873Y43911D01*
X89821Y43995D01*
X89763Y44093D01*
X89711Y44196D01*
X89666Y44306D01*
X89621Y44429D01*
X89582Y44559D01*
X89556Y44695D01*
X89536Y44844D01*
X89530Y44993D01*
Y44999D01*
Y45019D01*
Y45045D01*
X89536Y45084D01*
Y45135D01*
X89543Y45187D01*
X89549Y45252D01*
X89562Y45323D01*
X89595Y45472D01*
X89640Y45641D01*
X89705Y45809D01*
X89789Y45971D01*
X89795Y45978D01*
X89802Y45990D01*
X89815Y46010D01*
X89841Y46042D01*
X89899Y46120D01*
X89983Y46217D01*
X90087Y46321D01*
X90210Y46431D01*
X90359Y46541D01*
X90527Y46632D01*
X90534D01*
X90547Y46645D01*
X90579Y46658D01*
X90618Y46670D01*
X90663Y46690D01*
X90722Y46716D01*
X90793Y46742D01*
X90877Y46768D01*
X90968Y46800D01*
X91071Y46832D01*
X91181Y46865D01*
X91305Y46897D01*
X91434Y46936D01*
X91577Y46968D01*
X91732Y47001D01*
X91894Y47033D01*
X91907D01*
X91946Y47046D01*
X92011Y47053D01*
X92088Y47072D01*
X92185Y47091D01*
X92302Y47117D01*
X92425Y47143D01*
X92555Y47169D01*
X92833Y47241D01*
X93105Y47312D01*
X93235Y47344D01*
X93358Y47383D01*
X93468Y47422D01*
X93565Y47461D01*
Y47629D01*
Y47636D01*
Y47649D01*
Y47674D01*
X93559Y47707D01*
Y47752D01*
X93552Y47797D01*
X93533Y47901D01*
X93507Y48018D01*
X93461Y48134D01*
X93403Y48244D01*
X93364Y48290D01*
X93319Y48335D01*
X93306Y48342D01*
X93293Y48355D01*
X93267Y48368D01*
X93241Y48387D01*
X93202Y48400D01*
X93163Y48419D01*
X93112Y48445D01*
X93053Y48465D01*
X92982Y48484D01*
X92911Y48497D01*
X92827Y48516D01*
X92730Y48529D01*
X92626Y48542D01*
X92516Y48549D01*
X92315D01*
X92276Y48542D01*
X92231D01*
X92134Y48529D01*
X92017Y48503D01*
X91894Y48471D01*
X91777Y48426D01*
X91674Y48368D01*
X91661Y48361D01*
X91635Y48335D01*
X91583Y48283D01*
X91531Y48218D01*
X91467Y48134D01*
X91395Y48024D01*
X91330Y47888D01*
X91266Y47733D01*
X89705Y48011D01*
X89711Y48024D01*
X89718Y48050D01*
X89731Y48102D01*
X89757Y48167D01*
X89782Y48244D01*
X89821Y48335D01*
X89867Y48432D01*
X89912Y48536D01*
X89970Y48653D01*
X90042Y48763D01*
X90113Y48879D01*
X90197Y48996D01*
X90281Y49106D01*
X90385Y49216D01*
X90489Y49313D01*
X90605Y49404D01*
X90611Y49410D01*
X90637Y49423D01*
X90676Y49449D01*
X90728Y49475D01*
X90793Y49507D01*
X90877Y49546D01*
X90974Y49592D01*
X91091Y49637D01*
X91214Y49676D01*
X91356Y49721D01*
X91518Y49760D01*
X91687Y49792D01*
X91875Y49818D01*
X92075Y49844D01*
X92289Y49857D01*
X92522Y49864D01*
X92632D01*
X92710Y49857D01*
D02*
G37*
G36*
X73227D02*
X73324D01*
X73435Y49851D01*
X73558Y49844D01*
X73687Y49831D01*
X73823Y49818D01*
X73966Y49799D01*
X74251Y49747D01*
X74387Y49721D01*
X74523Y49682D01*
X74646Y49637D01*
X74756Y49592D01*
X74762D01*
X74782Y49579D01*
X74808Y49566D01*
X74847Y49540D01*
X74892Y49514D01*
X74944Y49482D01*
X75067Y49404D01*
X75196Y49300D01*
X75326Y49184D01*
X75449Y49048D01*
X75501Y48976D01*
X75546Y48899D01*
Y48892D01*
X75559Y48879D01*
X75566Y48853D01*
X75585Y48814D01*
X75598Y48769D01*
X75617Y48704D01*
X75643Y48633D01*
X75663Y48549D01*
X75682Y48452D01*
X75708Y48335D01*
X75727Y48212D01*
X75740Y48070D01*
X75760Y47914D01*
X75766Y47746D01*
X75779Y47558D01*
Y47357D01*
X75753Y45356D01*
Y45349D01*
Y45317D01*
Y45272D01*
Y45213D01*
Y45142D01*
X75760Y45064D01*
Y44974D01*
X75766Y44876D01*
X75773Y44669D01*
X75786Y44462D01*
X75792Y44358D01*
X75805Y44261D01*
X75818Y44177D01*
X75831Y44093D01*
Y44086D01*
X75837Y44073D01*
Y44054D01*
X75850Y44021D01*
X75857Y43983D01*
X75870Y43937D01*
X75902Y43834D01*
X75941Y43704D01*
X75999Y43555D01*
X76064Y43393D01*
X76142Y43225D01*
X74445D01*
Y43231D01*
X74432Y43257D01*
X74419Y43296D01*
X74400Y43354D01*
X74374Y43425D01*
X74341Y43510D01*
X74309Y43613D01*
X74276Y43730D01*
Y43736D01*
X74270Y43756D01*
X74264Y43782D01*
X74251Y43814D01*
X74231Y43879D01*
X74225Y43905D01*
X74218Y43931D01*
X74212Y43924D01*
X74199Y43911D01*
X74173Y43892D01*
X74141Y43860D01*
X74102Y43827D01*
X74050Y43782D01*
X73998Y43736D01*
X73933Y43691D01*
X73797Y43587D01*
X73635Y43477D01*
X73460Y43380D01*
X73273Y43289D01*
X73266D01*
X73253Y43283D01*
X73221Y43270D01*
X73188Y43257D01*
X73137Y43238D01*
X73085Y43225D01*
X73020Y43205D01*
X72955Y43186D01*
X72877Y43160D01*
X72793Y43141D01*
X72612Y43108D01*
X72411Y43082D01*
X72204Y43076D01*
X72159D01*
X72107Y43082D01*
X72035D01*
X71951Y43095D01*
X71854Y43102D01*
X71750Y43121D01*
X71627Y43147D01*
X71504Y43173D01*
X71375Y43212D01*
X71245Y43251D01*
X71116Y43302D01*
X70986Y43367D01*
X70857Y43439D01*
X70734Y43523D01*
X70623Y43620D01*
X70617Y43626D01*
X70598Y43646D01*
X70572Y43678D01*
X70533Y43717D01*
X70487Y43769D01*
X70442Y43834D01*
X70390Y43911D01*
X70339Y43995D01*
X70280Y44093D01*
X70228Y44196D01*
X70183Y44306D01*
X70138Y44429D01*
X70099Y44559D01*
X70073Y44695D01*
X70054Y44844D01*
X70047Y44993D01*
Y44999D01*
Y45019D01*
Y45045D01*
X70054Y45084D01*
Y45135D01*
X70060Y45187D01*
X70066Y45252D01*
X70079Y45323D01*
X70112Y45472D01*
X70157Y45641D01*
X70222Y45809D01*
X70306Y45971D01*
X70313Y45978D01*
X70319Y45990D01*
X70332Y46010D01*
X70358Y46042D01*
X70416Y46120D01*
X70500Y46217D01*
X70604Y46321D01*
X70727Y46431D01*
X70876Y46541D01*
X71045Y46632D01*
X71051D01*
X71064Y46645D01*
X71096Y46658D01*
X71135Y46670D01*
X71181Y46690D01*
X71239Y46716D01*
X71310Y46742D01*
X71394Y46768D01*
X71485Y46800D01*
X71589Y46832D01*
X71699Y46865D01*
X71822Y46897D01*
X71951Y46936D01*
X72094Y46968D01*
X72249Y47001D01*
X72411Y47033D01*
X72424D01*
X72463Y47046D01*
X72528Y47053D01*
X72606Y47072D01*
X72703Y47091D01*
X72819Y47117D01*
X72942Y47143D01*
X73072Y47169D01*
X73350Y47241D01*
X73622Y47312D01*
X73752Y47344D01*
X73875Y47383D01*
X73985Y47422D01*
X74082Y47461D01*
Y47629D01*
Y47636D01*
Y47649D01*
Y47674D01*
X74076Y47707D01*
Y47752D01*
X74069Y47797D01*
X74050Y47901D01*
X74024Y48018D01*
X73979Y48134D01*
X73920Y48244D01*
X73881Y48290D01*
X73836Y48335D01*
X73823Y48342D01*
X73810Y48355D01*
X73784Y48368D01*
X73758Y48387D01*
X73720Y48400D01*
X73681Y48419D01*
X73629Y48445D01*
X73570Y48465D01*
X73499Y48484D01*
X73428Y48497D01*
X73344Y48516D01*
X73247Y48529D01*
X73143Y48542D01*
X73033Y48549D01*
X72832D01*
X72793Y48542D01*
X72748D01*
X72651Y48529D01*
X72534Y48503D01*
X72411Y48471D01*
X72295Y48426D01*
X72191Y48368D01*
X72178Y48361D01*
X72152Y48335D01*
X72100Y48283D01*
X72048Y48218D01*
X71984Y48134D01*
X71912Y48024D01*
X71848Y47888D01*
X71783Y47733D01*
X70222Y48011D01*
X70228Y48024D01*
X70235Y48050D01*
X70248Y48102D01*
X70274Y48167D01*
X70300Y48244D01*
X70339Y48335D01*
X70384Y48432D01*
X70429Y48536D01*
X70487Y48653D01*
X70559Y48763D01*
X70630Y48879D01*
X70714Y48996D01*
X70798Y49106D01*
X70902Y49216D01*
X71006Y49313D01*
X71122Y49404D01*
X71129Y49410D01*
X71155Y49423D01*
X71193Y49449D01*
X71245Y49475D01*
X71310Y49507D01*
X71394Y49546D01*
X71491Y49592D01*
X71608Y49637D01*
X71731Y49676D01*
X71874Y49721D01*
X72035Y49760D01*
X72204Y49792D01*
X72392Y49818D01*
X72593Y49844D01*
X72806Y49857D01*
X73039Y49864D01*
X73149D01*
X73227Y49857D01*
D02*
G37*
G36*
X59302D02*
X59399D01*
X59509Y49851D01*
X59632Y49844D01*
X59762Y49831D01*
X59898Y49818D01*
X60040Y49799D01*
X60325Y49747D01*
X60461Y49721D01*
X60597Y49682D01*
X60720Y49637D01*
X60830Y49592D01*
X60837D01*
X60856Y49579D01*
X60882Y49566D01*
X60921Y49540D01*
X60966Y49514D01*
X61018Y49482D01*
X61141Y49404D01*
X61271Y49300D01*
X61400Y49184D01*
X61523Y49048D01*
X61575Y48976D01*
X61620Y48899D01*
Y48892D01*
X61633Y48879D01*
X61640Y48853D01*
X61659Y48814D01*
X61672Y48769D01*
X61692Y48704D01*
X61718Y48633D01*
X61737Y48549D01*
X61757Y48452D01*
X61782Y48335D01*
X61802Y48212D01*
X61815Y48070D01*
X61834Y47914D01*
X61841Y47746D01*
X61854Y47558D01*
Y47357D01*
X61828Y45356D01*
Y45349D01*
Y45317D01*
Y45272D01*
Y45213D01*
Y45142D01*
X61834Y45064D01*
Y44974D01*
X61841Y44876D01*
X61847Y44669D01*
X61860Y44462D01*
X61867Y44358D01*
X61880Y44261D01*
X61892Y44177D01*
X61905Y44093D01*
Y44086D01*
X61912Y44073D01*
Y44054D01*
X61925Y44021D01*
X61931Y43983D01*
X61944Y43937D01*
X61977Y43834D01*
X62016Y43704D01*
X62074Y43555D01*
X62139Y43393D01*
X62216Y43225D01*
X60519D01*
Y43231D01*
X60506Y43257D01*
X60493Y43296D01*
X60474Y43354D01*
X60448Y43425D01*
X60416Y43510D01*
X60383Y43613D01*
X60351Y43730D01*
Y43736D01*
X60345Y43756D01*
X60338Y43782D01*
X60325Y43814D01*
X60306Y43879D01*
X60299Y43905D01*
X60293Y43931D01*
X60286Y43924D01*
X60273Y43911D01*
X60247Y43892D01*
X60215Y43860D01*
X60176Y43827D01*
X60124Y43782D01*
X60072Y43736D01*
X60008Y43691D01*
X59872Y43587D01*
X59710Y43477D01*
X59535Y43380D01*
X59347Y43289D01*
X59341D01*
X59328Y43283D01*
X59295Y43270D01*
X59263Y43257D01*
X59211Y43238D01*
X59159Y43225D01*
X59094Y43205D01*
X59030Y43186D01*
X58952Y43160D01*
X58868Y43141D01*
X58686Y43108D01*
X58486Y43082D01*
X58278Y43076D01*
X58233D01*
X58181Y43082D01*
X58110D01*
X58026Y43095D01*
X57929Y43102D01*
X57825Y43121D01*
X57702Y43147D01*
X57579Y43173D01*
X57449Y43212D01*
X57320Y43251D01*
X57190Y43302D01*
X57061Y43367D01*
X56931Y43439D01*
X56808Y43523D01*
X56698Y43620D01*
X56691Y43626D01*
X56672Y43646D01*
X56646Y43678D01*
X56607Y43717D01*
X56562Y43769D01*
X56517Y43834D01*
X56465Y43911D01*
X56413Y43995D01*
X56355Y44093D01*
X56303Y44196D01*
X56258Y44306D01*
X56212Y44429D01*
X56173Y44559D01*
X56147Y44695D01*
X56128Y44844D01*
X56122Y44993D01*
Y44999D01*
Y45019D01*
Y45045D01*
X56128Y45084D01*
Y45135D01*
X56135Y45187D01*
X56141Y45252D01*
X56154Y45323D01*
X56186Y45472D01*
X56232Y45641D01*
X56296Y45809D01*
X56381Y45971D01*
X56387Y45978D01*
X56393Y45990D01*
X56406Y46010D01*
X56432Y46042D01*
X56491Y46120D01*
X56575Y46217D01*
X56679Y46321D01*
X56802Y46431D01*
X56951Y46541D01*
X57119Y46632D01*
X57125D01*
X57138Y46645D01*
X57171Y46658D01*
X57210Y46670D01*
X57255Y46690D01*
X57313Y46716D01*
X57385Y46742D01*
X57469Y46768D01*
X57559Y46800D01*
X57663Y46832D01*
X57773Y46865D01*
X57896Y46897D01*
X58026Y46936D01*
X58168Y46968D01*
X58324Y47001D01*
X58486Y47033D01*
X58499D01*
X58537Y47046D01*
X58602Y47053D01*
X58680Y47072D01*
X58777Y47091D01*
X58894Y47117D01*
X59017Y47143D01*
X59146Y47169D01*
X59425Y47241D01*
X59697Y47312D01*
X59826Y47344D01*
X59949Y47383D01*
X60059Y47422D01*
X60157Y47461D01*
Y47629D01*
Y47636D01*
Y47649D01*
Y47674D01*
X60150Y47707D01*
Y47752D01*
X60144Y47797D01*
X60124Y47901D01*
X60098Y48018D01*
X60053Y48134D01*
X59995Y48244D01*
X59956Y48290D01*
X59910Y48335D01*
X59898Y48342D01*
X59885Y48355D01*
X59859Y48368D01*
X59833Y48387D01*
X59794Y48400D01*
X59755Y48419D01*
X59703Y48445D01*
X59645Y48465D01*
X59574Y48484D01*
X59503Y48497D01*
X59418Y48516D01*
X59321Y48529D01*
X59218Y48542D01*
X59107Y48549D01*
X58907D01*
X58868Y48542D01*
X58822D01*
X58725Y48529D01*
X58609Y48503D01*
X58486Y48471D01*
X58369Y48426D01*
X58265Y48368D01*
X58252Y48361D01*
X58226Y48335D01*
X58175Y48283D01*
X58123Y48218D01*
X58058Y48134D01*
X57987Y48024D01*
X57922Y47888D01*
X57857Y47733D01*
X56296Y48011D01*
X56303Y48024D01*
X56309Y48050D01*
X56322Y48102D01*
X56348Y48167D01*
X56374Y48244D01*
X56413Y48335D01*
X56458Y48432D01*
X56504Y48536D01*
X56562Y48653D01*
X56633Y48763D01*
X56704Y48879D01*
X56789Y48996D01*
X56873Y49106D01*
X56976Y49216D01*
X57080Y49313D01*
X57197Y49404D01*
X57203Y49410D01*
X57229Y49423D01*
X57268Y49449D01*
X57320Y49475D01*
X57385Y49507D01*
X57469Y49546D01*
X57566Y49592D01*
X57682Y49637D01*
X57806Y49676D01*
X57948Y49721D01*
X58110Y49760D01*
X58278Y49792D01*
X58466Y49818D01*
X58667Y49844D01*
X58881Y49857D01*
X59114Y49864D01*
X59224D01*
X59302Y49857D01*
D02*
G37*
G36*
X54198Y49721D02*
X55370D01*
Y48355D01*
X54198D01*
Y45731D01*
Y45725D01*
Y45699D01*
Y45660D01*
Y45602D01*
Y45543D01*
Y45472D01*
X54204Y45317D01*
Y45155D01*
X54211Y45077D01*
Y44999D01*
X54217Y44935D01*
Y44876D01*
X54224Y44831D01*
X54230Y44799D01*
Y44792D01*
X54237Y44779D01*
X54250Y44753D01*
X54263Y44721D01*
X54282Y44689D01*
X54308Y44656D01*
X54340Y44617D01*
X54379Y44585D01*
X54386Y44578D01*
X54399Y44572D01*
X54425Y44559D01*
X54463Y44546D01*
X54502Y44527D01*
X54554Y44514D01*
X54612Y44507D01*
X54671Y44501D01*
X54716D01*
X54768Y44507D01*
X54845Y44520D01*
X54943Y44540D01*
X55066Y44572D01*
X55202Y44611D01*
X55364Y44663D01*
X55513Y43328D01*
X55506D01*
X55487Y43315D01*
X55454Y43302D01*
X55409Y43289D01*
X55351Y43270D01*
X55279Y43251D01*
X55202Y43225D01*
X55118Y43205D01*
X55020Y43179D01*
X54917Y43154D01*
X54807Y43134D01*
X54684Y43115D01*
X54431Y43089D01*
X54152Y43076D01*
X54075D01*
X54036Y43082D01*
X53991D01*
X53874Y43095D01*
X53744Y43115D01*
X53608Y43141D01*
X53460Y43179D01*
X53317Y43231D01*
X53310D01*
X53304Y43238D01*
X53285Y43244D01*
X53259Y43257D01*
X53194Y43296D01*
X53110Y43341D01*
X53019Y43400D01*
X52935Y43464D01*
X52844Y43542D01*
X52773Y43633D01*
X52766Y43646D01*
X52747Y43678D01*
X52715Y43736D01*
X52676Y43808D01*
X52637Y43905D01*
X52598Y44021D01*
X52559Y44157D01*
X52533Y44306D01*
Y44313D01*
Y44319D01*
X52527Y44339D01*
Y44365D01*
X52520Y44404D01*
Y44449D01*
X52514Y44507D01*
X52507Y44572D01*
X52501Y44643D01*
Y44734D01*
X52494Y44831D01*
X52488Y44941D01*
Y45064D01*
X52481Y45207D01*
Y45356D01*
Y45518D01*
Y48355D01*
X51691D01*
Y49721D01*
X52481D01*
Y51010D01*
X54198Y52021D01*
Y49721D01*
D02*
G37*
G36*
X48012Y49857D02*
X48051D01*
X48155Y49851D01*
X48278Y49838D01*
X48414Y49812D01*
X48576Y49786D01*
X48744Y49747D01*
X48919Y49695D01*
X49107Y49630D01*
X49295Y49553D01*
X49489Y49462D01*
X49677Y49352D01*
X49858Y49222D01*
X50033Y49074D01*
X50195Y48905D01*
X50202Y48892D01*
X50234Y48860D01*
X50273Y48801D01*
X50325Y48724D01*
X50389Y48620D01*
X50461Y48497D01*
X50532Y48348D01*
X50610Y48180D01*
X50687Y47985D01*
X50765Y47765D01*
X50830Y47526D01*
X50895Y47260D01*
X50940Y46975D01*
X50979Y46664D01*
X50998Y46327D01*
X51005Y45971D01*
X46698D01*
Y45964D01*
Y45939D01*
X46704Y45900D01*
Y45848D01*
X46710Y45783D01*
X46723Y45705D01*
X46736Y45628D01*
X46756Y45537D01*
X46801Y45343D01*
X46834Y45246D01*
X46872Y45148D01*
X46924Y45051D01*
X46976Y44954D01*
X47034Y44863D01*
X47105Y44779D01*
X47112Y44773D01*
X47125Y44760D01*
X47144Y44740D01*
X47177Y44714D01*
X47216Y44682D01*
X47267Y44643D01*
X47319Y44611D01*
X47384Y44572D01*
X47449Y44527D01*
X47526Y44494D01*
X47695Y44423D01*
X47792Y44397D01*
X47889Y44378D01*
X47993Y44365D01*
X48103Y44358D01*
X48142D01*
X48174Y44365D01*
X48246Y44371D01*
X48343Y44384D01*
X48446Y44410D01*
X48563Y44449D01*
X48673Y44501D01*
X48783Y44572D01*
X48790D01*
X48796Y44585D01*
X48828Y44617D01*
X48880Y44669D01*
X48938Y44747D01*
X49010Y44844D01*
X49081Y44967D01*
X49146Y45110D01*
X49204Y45284D01*
X50914Y44999D01*
X50908Y44987D01*
X50901Y44961D01*
X50882Y44909D01*
X50849Y44844D01*
X50817Y44766D01*
X50771Y44676D01*
X50720Y44572D01*
X50655Y44468D01*
X50590Y44352D01*
X50512Y44235D01*
X50422Y44112D01*
X50331Y43995D01*
X50227Y43879D01*
X50117Y43762D01*
X49994Y43659D01*
X49865Y43562D01*
X49858Y43555D01*
X49832Y43542D01*
X49794Y43516D01*
X49735Y43484D01*
X49664Y43451D01*
X49586Y43406D01*
X49483Y43367D01*
X49373Y43322D01*
X49249Y43277D01*
X49120Y43231D01*
X48971Y43186D01*
X48815Y43154D01*
X48647Y43121D01*
X48466Y43095D01*
X48278Y43082D01*
X48084Y43076D01*
X48012D01*
X47967Y43082D01*
X47922D01*
X47870Y43089D01*
X47805Y43095D01*
X47663Y43108D01*
X47507Y43134D01*
X47326Y43166D01*
X47131Y43212D01*
X46931Y43270D01*
X46723Y43348D01*
X46516Y43432D01*
X46309Y43542D01*
X46108Y43665D01*
X45920Y43814D01*
X45739Y43983D01*
X45577Y44177D01*
X45571Y44190D01*
X45551Y44216D01*
X45519Y44268D01*
X45480Y44339D01*
X45428Y44423D01*
X45376Y44527D01*
X45318Y44650D01*
X45260Y44792D01*
X45195Y44948D01*
X45136Y45116D01*
X45085Y45297D01*
X45039Y45498D01*
X44994Y45705D01*
X44962Y45932D01*
X44942Y46172D01*
X44936Y46418D01*
Y46424D01*
Y46437D01*
Y46457D01*
Y46489D01*
X44942Y46528D01*
Y46573D01*
Y46625D01*
X44949Y46683D01*
X44962Y46820D01*
X44981Y46975D01*
X45007Y47150D01*
X45039Y47338D01*
X45085Y47538D01*
X45143Y47746D01*
X45208Y47953D01*
X45292Y48167D01*
X45389Y48374D01*
X45499Y48575D01*
X45629Y48763D01*
X45778Y48944D01*
X45791Y48957D01*
X45817Y48983D01*
X45862Y49028D01*
X45927Y49086D01*
X46011Y49158D01*
X46115Y49235D01*
X46231Y49320D01*
X46361Y49404D01*
X46510Y49488D01*
X46672Y49572D01*
X46846Y49650D01*
X47034Y49721D01*
X47235Y49780D01*
X47449Y49825D01*
X47675Y49851D01*
X47915Y49864D01*
X47980D01*
X48012Y49857D01*
D02*
G37*
G36*
X52112Y30000D02*
X50143D01*
X49366Y32034D01*
X45778D01*
X45039Y30000D01*
X43122D01*
X46600Y38964D01*
X48524D01*
X52112Y30000D01*
D02*
G37*
G36*
X39035Y38958D02*
X39158D01*
X39294Y38951D01*
X39443Y38945D01*
X39605Y38932D01*
X39774Y38919D01*
X39942Y38906D01*
X40292Y38860D01*
X40454Y38835D01*
X40609Y38802D01*
X40758Y38763D01*
X40888Y38718D01*
X40894D01*
X40914Y38705D01*
X40952Y38692D01*
X40998Y38673D01*
X41049Y38647D01*
X41114Y38608D01*
X41185Y38569D01*
X41263Y38524D01*
X41347Y38465D01*
X41432Y38401D01*
X41516Y38329D01*
X41606Y38252D01*
X41691Y38168D01*
X41775Y38070D01*
X41853Y37967D01*
X41930Y37857D01*
X41937Y37850D01*
X41950Y37831D01*
X41969Y37792D01*
X41995Y37747D01*
X42021Y37688D01*
X42053Y37623D01*
X42092Y37539D01*
X42131Y37448D01*
X42164Y37351D01*
X42202Y37241D01*
X42235Y37125D01*
X42267Y37002D01*
X42287Y36872D01*
X42306Y36736D01*
X42319Y36600D01*
X42326Y36451D01*
Y36438D01*
Y36406D01*
X42319Y36354D01*
Y36283D01*
X42306Y36198D01*
X42293Y36095D01*
X42274Y35985D01*
X42254Y35862D01*
X42222Y35732D01*
X42183Y35596D01*
X42131Y35460D01*
X42073Y35318D01*
X42008Y35182D01*
X41924Y35039D01*
X41833Y34910D01*
X41730Y34780D01*
X41723Y34773D01*
X41704Y34754D01*
X41665Y34722D01*
X41620Y34676D01*
X41555Y34625D01*
X41483Y34566D01*
X41393Y34502D01*
X41289Y34430D01*
X41166Y34359D01*
X41037Y34294D01*
X40894Y34223D01*
X40732Y34158D01*
X40557Y34093D01*
X40369Y34042D01*
X40169Y33996D01*
X39955Y33957D01*
X39961Y33951D01*
X39981Y33944D01*
X40013Y33925D01*
X40052Y33899D01*
X40104Y33867D01*
X40162Y33828D01*
X40227Y33783D01*
X40298Y33737D01*
X40454Y33621D01*
X40616Y33491D01*
X40778Y33349D01*
X40926Y33200D01*
X40933Y33193D01*
X40946Y33180D01*
X40965Y33154D01*
X40998Y33122D01*
X41037Y33077D01*
X41082Y33018D01*
X41134Y32947D01*
X41199Y32863D01*
X41270Y32772D01*
X41347Y32668D01*
X41432Y32545D01*
X41522Y32416D01*
X41620Y32267D01*
X41723Y32111D01*
X41840Y31937D01*
X41956Y31749D01*
X43051Y30000D01*
X40881D01*
X39579Y31950D01*
X39573Y31962D01*
X39547Y31995D01*
X39515Y32047D01*
X39469Y32118D01*
X39411Y32202D01*
X39346Y32293D01*
X39275Y32397D01*
X39197Y32507D01*
X39035Y32727D01*
X38958Y32837D01*
X38880Y32947D01*
X38809Y33044D01*
X38737Y33128D01*
X38672Y33206D01*
X38621Y33264D01*
X38608Y33277D01*
X38575Y33310D01*
X38523Y33355D01*
X38459Y33413D01*
X38375Y33478D01*
X38284Y33536D01*
X38187Y33595D01*
X38077Y33640D01*
X38064Y33647D01*
X38044Y33653D01*
X38025Y33660D01*
X37992Y33666D01*
X37954Y33672D01*
X37908Y33685D01*
X37856Y33692D01*
X37798Y33705D01*
X37733Y33711D01*
X37656Y33718D01*
X37571Y33731D01*
X37487Y33737D01*
X37390D01*
X37280Y33744D01*
X36807D01*
Y30000D01*
X35000D01*
Y38964D01*
X38938D01*
X39035Y38958D01*
D02*
G37*
G36*
X39165Y17655D02*
X37617D01*
X35000Y24152D01*
X36801D01*
X38025Y20836D01*
X38381Y19728D01*
Y19735D01*
X38387Y19748D01*
X38394Y19767D01*
X38407Y19799D01*
X38426Y19871D01*
X38459Y19955D01*
X38485Y20052D01*
X38517Y20143D01*
X38536Y20220D01*
X38549Y20259D01*
X38556Y20285D01*
X38562Y20298D01*
X38569Y20330D01*
X38588Y20389D01*
X38614Y20454D01*
X38640Y20538D01*
X38672Y20635D01*
X38705Y20732D01*
X38744Y20836D01*
X39974Y24152D01*
X41743D01*
X39165Y17655D01*
D02*
G37*
G36*
X66388Y26646D02*
X66478Y26639D01*
X66588Y26633D01*
X66718Y26613D01*
X66860Y26594D01*
X67016Y26561D01*
X67178Y26523D01*
X67353Y26477D01*
X67527Y26419D01*
X67696Y26348D01*
X67871Y26263D01*
X68039Y26173D01*
X68195Y26063D01*
X68344Y25933D01*
X68350Y25927D01*
X68376Y25901D01*
X68415Y25862D01*
X68460Y25803D01*
X68519Y25732D01*
X68583Y25654D01*
X68654Y25551D01*
X68726Y25441D01*
X68797Y25318D01*
X68868Y25188D01*
X68933Y25039D01*
X68991Y24884D01*
X69037Y24715D01*
X69075Y24534D01*
X69101Y24346D01*
X69108Y24152D01*
Y24145D01*
Y24126D01*
Y24094D01*
Y24048D01*
X69101Y23996D01*
X69095Y23932D01*
X69089Y23860D01*
X69082Y23783D01*
X69056Y23608D01*
X69017Y23414D01*
X68959Y23206D01*
X68888Y22999D01*
Y22992D01*
X68875Y22973D01*
X68862Y22947D01*
X68849Y22902D01*
X68823Y22857D01*
X68790Y22798D01*
X68758Y22727D01*
X68719Y22656D01*
X68674Y22571D01*
X68622Y22481D01*
X68506Y22287D01*
X68363Y22079D01*
X68201Y21859D01*
X68195Y21853D01*
X68188Y21840D01*
X68169Y21820D01*
X68143Y21788D01*
X68104Y21742D01*
X68059Y21691D01*
X68007Y21632D01*
X67942Y21567D01*
X67871Y21490D01*
X67787Y21406D01*
X67696Y21309D01*
X67592Y21205D01*
X67482Y21095D01*
X67359Y20978D01*
X67223Y20849D01*
X67074Y20713D01*
X67068Y20706D01*
X67042Y20680D01*
X66996Y20641D01*
X66945Y20589D01*
X66880Y20531D01*
X66802Y20466D01*
X66724Y20389D01*
X66640Y20311D01*
X66465Y20143D01*
X66290Y19981D01*
X66213Y19903D01*
X66148Y19838D01*
X66083Y19773D01*
X66038Y19722D01*
X66031Y19709D01*
X66005Y19683D01*
X65960Y19631D01*
X65915Y19573D01*
X65856Y19501D01*
X65798Y19417D01*
X65740Y19333D01*
X65688Y19249D01*
X69108D01*
Y17655D01*
X63084D01*
Y17668D01*
X63091Y17694D01*
X63097Y17746D01*
X63110Y17811D01*
X63123Y17889D01*
X63143Y17986D01*
X63162Y18089D01*
X63194Y18206D01*
X63227Y18335D01*
X63272Y18471D01*
X63317Y18608D01*
X63369Y18757D01*
X63434Y18906D01*
X63505Y19061D01*
X63583Y19210D01*
X63667Y19365D01*
X63674Y19372D01*
X63693Y19404D01*
X63726Y19450D01*
X63764Y19514D01*
X63823Y19592D01*
X63900Y19689D01*
X63991Y19806D01*
X64095Y19935D01*
X64218Y20084D01*
X64354Y20246D01*
X64516Y20421D01*
X64691Y20615D01*
X64891Y20823D01*
X65105Y21036D01*
X65345Y21270D01*
X65604Y21516D01*
X65610Y21522D01*
X65617Y21529D01*
X65656Y21561D01*
X65714Y21619D01*
X65792Y21691D01*
X65882Y21781D01*
X65986Y21878D01*
X66096Y21989D01*
X66219Y22105D01*
X66459Y22351D01*
X66582Y22468D01*
X66692Y22591D01*
X66802Y22701D01*
X66893Y22805D01*
X66971Y22902D01*
X67029Y22980D01*
X67035Y22986D01*
X67042Y23005D01*
X67061Y23031D01*
X67087Y23070D01*
X67113Y23122D01*
X67139Y23174D01*
X67171Y23239D01*
X67210Y23310D01*
X67275Y23472D01*
X67327Y23647D01*
X67372Y23841D01*
X67379Y23938D01*
X67385Y24035D01*
Y24042D01*
Y24061D01*
Y24087D01*
X67379Y24132D01*
Y24178D01*
X67372Y24230D01*
X67346Y24359D01*
X67307Y24502D01*
X67256Y24651D01*
X67178Y24787D01*
X67126Y24858D01*
X67074Y24916D01*
X67068Y24923D01*
X67061Y24929D01*
X67042Y24942D01*
X67016Y24968D01*
X66983Y24987D01*
X66945Y25013D01*
X66899Y25046D01*
X66854Y25072D01*
X66731Y25130D01*
X66582Y25182D01*
X66413Y25214D01*
X66316Y25221D01*
X66219Y25227D01*
X66167D01*
X66129Y25221D01*
X66083D01*
X66031Y25208D01*
X65908Y25188D01*
X65772Y25149D01*
X65623Y25091D01*
X65559Y25052D01*
X65487Y25013D01*
X65423Y24962D01*
X65358Y24903D01*
X65351Y24897D01*
X65345Y24890D01*
X65325Y24871D01*
X65306Y24838D01*
X65280Y24806D01*
X65254Y24761D01*
X65228Y24709D01*
X65196Y24651D01*
X65163Y24579D01*
X65131Y24502D01*
X65099Y24411D01*
X65073Y24314D01*
X65047Y24204D01*
X65021Y24087D01*
X65008Y23964D01*
X64995Y23828D01*
X63285Y23996D01*
Y24003D01*
Y24016D01*
X63292Y24035D01*
Y24061D01*
X63298Y24094D01*
X63305Y24132D01*
X63324Y24230D01*
X63343Y24346D01*
X63376Y24476D01*
X63415Y24625D01*
X63460Y24780D01*
X63518Y24948D01*
X63583Y25117D01*
X63661Y25285D01*
X63751Y25454D01*
X63849Y25616D01*
X63965Y25765D01*
X64095Y25907D01*
X64237Y26030D01*
X64244Y26037D01*
X64276Y26056D01*
X64321Y26089D01*
X64380Y26127D01*
X64464Y26173D01*
X64555Y26225D01*
X64671Y26283D01*
X64794Y26341D01*
X64930Y26399D01*
X65086Y26458D01*
X65254Y26509D01*
X65429Y26555D01*
X65623Y26594D01*
X65824Y26626D01*
X66038Y26646D01*
X66258Y26652D01*
X66316D01*
X66388Y26646D01*
D02*
G37*
G36*
X61912Y17655D02*
X60195D01*
Y19372D01*
X61912D01*
Y17655D01*
D02*
G37*
G36*
X51471D02*
X49755D01*
Y19372D01*
X51471D01*
Y17655D01*
D02*
G37*
G36*
X46821D02*
X45104D01*
Y24126D01*
X45091Y24113D01*
X45059Y24087D01*
X45007Y24042D01*
X44936Y23984D01*
X44845Y23912D01*
X44735Y23828D01*
X44612Y23731D01*
X44469Y23634D01*
X44314Y23530D01*
X44145Y23420D01*
X43964Y23310D01*
X43770Y23206D01*
X43563Y23103D01*
X43342Y22999D01*
X43116Y22908D01*
X42882Y22824D01*
Y24385D01*
X42889D01*
X42915Y24398D01*
X42947Y24411D01*
X42999Y24430D01*
X43064Y24456D01*
X43135Y24482D01*
X43219Y24521D01*
X43316Y24566D01*
X43420Y24625D01*
X43530Y24683D01*
X43653Y24748D01*
X43776Y24825D01*
X43912Y24910D01*
X44048Y25000D01*
X44191Y25104D01*
X44340Y25214D01*
X44346Y25221D01*
X44372Y25240D01*
X44418Y25279D01*
X44469Y25324D01*
X44534Y25382D01*
X44605Y25454D01*
X44683Y25531D01*
X44774Y25622D01*
X44858Y25726D01*
X44949Y25836D01*
X45039Y25952D01*
X45130Y26082D01*
X45214Y26212D01*
X45292Y26354D01*
X45363Y26503D01*
X45422Y26652D01*
X46821D01*
Y17655D01*
D02*
G37*
G36*
X55888Y26646D02*
X55979Y26639D01*
X56089Y26626D01*
X56219Y26600D01*
X56355Y26574D01*
X56510Y26535D01*
X56666Y26484D01*
X56834Y26425D01*
X57002Y26348D01*
X57171Y26257D01*
X57339Y26153D01*
X57501Y26030D01*
X57657Y25881D01*
X57799Y25719D01*
X57812Y25706D01*
X57818Y25693D01*
X57838Y25668D01*
X57857Y25635D01*
X57883Y25603D01*
X57909Y25557D01*
X57935Y25506D01*
X57967Y25454D01*
X58006Y25389D01*
X58039Y25318D01*
X58078Y25240D01*
X58116Y25149D01*
X58155Y25059D01*
X58201Y24962D01*
X58239Y24851D01*
X58278Y24735D01*
X58324Y24612D01*
X58362Y24482D01*
X58401Y24346D01*
X58440Y24197D01*
X58473Y24048D01*
X58512Y23886D01*
X58544Y23718D01*
X58570Y23537D01*
X58596Y23355D01*
X58622Y23161D01*
X58641Y22960D01*
X58660Y22753D01*
X58673Y22533D01*
X58680Y22306D01*
Y22073D01*
Y22066D01*
Y22047D01*
Y22008D01*
Y21963D01*
Y21904D01*
X58673Y21833D01*
Y21749D01*
X58667Y21658D01*
X58660Y21555D01*
X58654Y21451D01*
X58647Y21334D01*
X58635Y21211D01*
X58609Y20946D01*
X58570Y20661D01*
X58524Y20363D01*
X58466Y20058D01*
X58395Y19754D01*
X58311Y19456D01*
X58207Y19165D01*
X58091Y18893D01*
X58026Y18763D01*
X57955Y18640D01*
X57877Y18523D01*
X57799Y18413D01*
X57793Y18400D01*
X57767Y18374D01*
X57721Y18329D01*
X57663Y18271D01*
X57592Y18199D01*
X57501Y18122D01*
X57391Y18044D01*
X57268Y17960D01*
X57132Y17869D01*
X56983Y17792D01*
X56814Y17714D01*
X56633Y17643D01*
X56439Y17584D01*
X56225Y17539D01*
X56005Y17513D01*
X55765Y17500D01*
X55707D01*
X55642Y17507D01*
X55552Y17513D01*
X55435Y17532D01*
X55312Y17552D01*
X55163Y17584D01*
X55014Y17623D01*
X54845Y17681D01*
X54677Y17746D01*
X54502Y17824D01*
X54321Y17921D01*
X54146Y18038D01*
X53978Y18174D01*
X53809Y18329D01*
X53654Y18504D01*
X53647Y18517D01*
X53621Y18549D01*
X53602Y18582D01*
X53583Y18614D01*
X53557Y18653D01*
X53531Y18698D01*
X53498Y18757D01*
X53472Y18815D01*
X53433Y18886D01*
X53401Y18957D01*
X53369Y19042D01*
X53330Y19126D01*
X53291Y19223D01*
X53259Y19326D01*
X53220Y19437D01*
X53181Y19560D01*
X53142Y19683D01*
X53110Y19819D01*
X53077Y19961D01*
X53045Y20110D01*
X53012Y20272D01*
X52980Y20440D01*
X52954Y20615D01*
X52928Y20797D01*
X52909Y20991D01*
X52889Y21192D01*
X52877Y21399D01*
X52864Y21619D01*
X52857Y21846D01*
Y22086D01*
Y22092D01*
Y22112D01*
Y22150D01*
Y22196D01*
X52864Y22254D01*
Y22325D01*
Y22410D01*
X52870Y22500D01*
X52877Y22597D01*
X52883Y22708D01*
X52896Y22824D01*
X52902Y22947D01*
X52928Y23206D01*
X52967Y23491D01*
X53012Y23789D01*
X53071Y24087D01*
X53142Y24392D01*
X53226Y24696D01*
X53323Y24981D01*
X53440Y25253D01*
X53511Y25382D01*
X53576Y25506D01*
X53654Y25622D01*
X53731Y25732D01*
X53738Y25745D01*
X53764Y25771D01*
X53809Y25817D01*
X53868Y25875D01*
X53939Y25946D01*
X54029Y26024D01*
X54139Y26108D01*
X54263Y26192D01*
X54399Y26276D01*
X54548Y26360D01*
X54716Y26438D01*
X54897Y26509D01*
X55092Y26568D01*
X55305Y26613D01*
X55526Y26639D01*
X55765Y26652D01*
X55824D01*
X55888Y26646D01*
D02*
G37*
%LPC*%
G36*
X74574Y61942D02*
X74516D01*
X74471Y61936D01*
X74419Y61929D01*
X74361Y61916D01*
X74289Y61903D01*
X74218Y61884D01*
X74141Y61858D01*
X74056Y61825D01*
X73972Y61786D01*
X73888Y61735D01*
X73804Y61683D01*
X73720Y61618D01*
X73635Y61540D01*
X73558Y61456D01*
X73551Y61450D01*
X73538Y61437D01*
X73519Y61404D01*
X73499Y61365D01*
X73467Y61314D01*
X73435Y61255D01*
X73396Y61178D01*
X73363Y61094D01*
X73324Y60996D01*
X73286Y60886D01*
X73253Y60770D01*
X73227Y60634D01*
X73201Y60491D01*
X73182Y60336D01*
X73169Y60174D01*
X73162Y59992D01*
Y59979D01*
Y59947D01*
Y59895D01*
X73169Y59824D01*
X73175Y59740D01*
X73182Y59643D01*
X73195Y59532D01*
X73214Y59416D01*
X73260Y59170D01*
X73292Y59047D01*
X73331Y58924D01*
X73376Y58801D01*
X73428Y58684D01*
X73486Y58580D01*
X73558Y58483D01*
X73564Y58477D01*
X73577Y58464D01*
X73596Y58438D01*
X73629Y58405D01*
X73668Y58373D01*
X73713Y58334D01*
X73771Y58289D01*
X73830Y58244D01*
X73901Y58198D01*
X73979Y58153D01*
X74147Y58082D01*
X74238Y58049D01*
X74335Y58023D01*
X74439Y58010D01*
X74549Y58004D01*
X74574D01*
X74607Y58010D01*
X74652D01*
X74710Y58017D01*
X74769Y58030D01*
X74840Y58043D01*
X74918Y58069D01*
X75002Y58095D01*
X75086Y58127D01*
X75170Y58166D01*
X75261Y58211D01*
X75352Y58270D01*
X75442Y58334D01*
X75527Y58412D01*
X75611Y58496D01*
X75617Y58503D01*
X75630Y58522D01*
X75650Y58548D01*
X75682Y58587D01*
X75714Y58639D01*
X75747Y58703D01*
X75786Y58775D01*
X75831Y58865D01*
X75870Y58962D01*
X75909Y59066D01*
X75941Y59189D01*
X75980Y59319D01*
X76006Y59461D01*
X76025Y59617D01*
X76038Y59779D01*
X76045Y59953D01*
Y59967D01*
Y59999D01*
Y60051D01*
X76038Y60115D01*
X76032Y60200D01*
X76025Y60297D01*
X76012Y60400D01*
X75993Y60517D01*
X75941Y60763D01*
X75909Y60886D01*
X75870Y61009D01*
X75818Y61126D01*
X75760Y61242D01*
X75695Y61353D01*
X75624Y61450D01*
X75617Y61456D01*
X75604Y61469D01*
X75578Y61495D01*
X75553Y61527D01*
X75507Y61566D01*
X75462Y61605D01*
X75403Y61651D01*
X75339Y61696D01*
X75268Y61741D01*
X75183Y61786D01*
X75099Y61825D01*
X75008Y61864D01*
X74905Y61897D01*
X74801Y61922D01*
X74691Y61936D01*
X74574Y61942D01*
D02*
G37*
G36*
X85436Y48503D02*
X85378D01*
X85333Y48497D01*
X85281Y48491D01*
X85216Y48478D01*
X85145Y48465D01*
X85067Y48445D01*
X84990Y48419D01*
X84905Y48380D01*
X84815Y48342D01*
X84730Y48296D01*
X84640Y48238D01*
X84556Y48173D01*
X84471Y48095D01*
X84387Y48011D01*
X84381Y48005D01*
X84368Y47992D01*
X84348Y47959D01*
X84322Y47921D01*
X84290Y47869D01*
X84258Y47810D01*
X84219Y47733D01*
X84180Y47649D01*
X84141Y47551D01*
X84102Y47448D01*
X84070Y47331D01*
X84037Y47202D01*
X84011Y47059D01*
X83992Y46910D01*
X83979Y46748D01*
X83973Y46573D01*
Y46560D01*
Y46528D01*
Y46470D01*
X83979Y46392D01*
X83986Y46301D01*
X83998Y46198D01*
X84011Y46088D01*
X84024Y45958D01*
X84076Y45699D01*
X84115Y45563D01*
X84154Y45427D01*
X84206Y45297D01*
X84264Y45174D01*
X84329Y45058D01*
X84407Y44954D01*
X84413Y44948D01*
X84426Y44935D01*
X84452Y44909D01*
X84484Y44876D01*
X84530Y44831D01*
X84575Y44792D01*
X84633Y44740D01*
X84705Y44695D01*
X84776Y44650D01*
X84860Y44598D01*
X84944Y44559D01*
X85035Y44520D01*
X85139Y44481D01*
X85242Y44455D01*
X85352Y44442D01*
X85469Y44436D01*
X85495D01*
X85527Y44442D01*
X85572D01*
X85618Y44449D01*
X85682Y44462D01*
X85747Y44475D01*
X85819Y44494D01*
X85896Y44520D01*
X85981Y44552D01*
X86065Y44591D01*
X86149Y44637D01*
X86233Y44695D01*
X86317Y44760D01*
X86395Y44831D01*
X86473Y44915D01*
X86479Y44922D01*
X86492Y44941D01*
X86512Y44967D01*
X86538Y45006D01*
X86563Y45058D01*
X86602Y45122D01*
X86635Y45200D01*
X86673Y45291D01*
X86712Y45395D01*
X86745Y45511D01*
X86784Y45641D01*
X86810Y45783D01*
X86835Y45939D01*
X86855Y46107D01*
X86868Y46288D01*
X86874Y46489D01*
Y46502D01*
Y46535D01*
Y46586D01*
X86868Y46658D01*
X86861Y46742D01*
X86855Y46839D01*
X86842Y46949D01*
X86823Y47066D01*
X86771Y47312D01*
X86738Y47435D01*
X86699Y47558D01*
X86654Y47681D01*
X86596Y47797D01*
X86531Y47908D01*
X86460Y48005D01*
X86453Y48011D01*
X86440Y48024D01*
X86421Y48050D01*
X86389Y48082D01*
X86343Y48121D01*
X86298Y48160D01*
X86240Y48205D01*
X86175Y48257D01*
X86103Y48303D01*
X86026Y48348D01*
X85942Y48387D01*
X85851Y48426D01*
X85760Y48458D01*
X85657Y48484D01*
X85547Y48497D01*
X85436Y48503D01*
D02*
G37*
G36*
X93565Y46340D02*
X93559D01*
X93552Y46334D01*
X93533Y46327D01*
X93500Y46321D01*
X93468Y46308D01*
X93422Y46295D01*
X93371Y46282D01*
X93306Y46269D01*
X93235Y46249D01*
X93157Y46230D01*
X93073Y46204D01*
X92976Y46185D01*
X92872Y46159D01*
X92762Y46133D01*
X92639Y46101D01*
X92509Y46075D01*
X92503D01*
X92477Y46068D01*
X92444Y46062D01*
X92393Y46049D01*
X92334Y46036D01*
X92270Y46016D01*
X92127Y45978D01*
X91972Y45932D01*
X91816Y45887D01*
X91745Y45854D01*
X91680Y45828D01*
X91622Y45803D01*
X91577Y45777D01*
X91570D01*
X91564Y45764D01*
X91525Y45731D01*
X91473Y45679D01*
X91415Y45608D01*
X91350Y45524D01*
X91298Y45420D01*
X91259Y45297D01*
X91253Y45233D01*
X91246Y45168D01*
Y45161D01*
Y45155D01*
Y45135D01*
X91253Y45110D01*
X91259Y45038D01*
X91279Y44954D01*
X91311Y44857D01*
X91356Y44753D01*
X91421Y44650D01*
X91512Y44546D01*
X91525Y44533D01*
X91564Y44507D01*
X91622Y44462D01*
X91700Y44416D01*
X91797Y44371D01*
X91913Y44326D01*
X92049Y44300D01*
X92198Y44287D01*
X92244D01*
X92276Y44293D01*
X92322D01*
X92367Y44306D01*
X92483Y44326D01*
X92619Y44365D01*
X92768Y44416D01*
X92924Y44494D01*
X93008Y44540D01*
X93086Y44591D01*
X93092D01*
X93099Y44604D01*
X93138Y44630D01*
X93189Y44682D01*
X93254Y44747D01*
X93325Y44831D01*
X93390Y44928D01*
X93448Y45038D01*
X93494Y45155D01*
X93500Y45168D01*
X93507Y45200D01*
X93513Y45226D01*
X93520Y45258D01*
X93526Y45297D01*
X93533Y45343D01*
X93539Y45395D01*
X93546Y45459D01*
Y45524D01*
X93552Y45602D01*
X93559Y45686D01*
X93565Y45783D01*
Y45887D01*
Y45997D01*
Y46340D01*
D02*
G37*
G36*
X74082D02*
X74076D01*
X74069Y46334D01*
X74050Y46327D01*
X74018Y46321D01*
X73985Y46308D01*
X73940Y46295D01*
X73888Y46282D01*
X73823Y46269D01*
X73752Y46249D01*
X73674Y46230D01*
X73590Y46204D01*
X73493Y46185D01*
X73389Y46159D01*
X73279Y46133D01*
X73156Y46101D01*
X73026Y46075D01*
X73020D01*
X72994Y46068D01*
X72962Y46062D01*
X72910Y46049D01*
X72852Y46036D01*
X72787Y46016D01*
X72644Y45978D01*
X72489Y45932D01*
X72333Y45887D01*
X72262Y45854D01*
X72197Y45828D01*
X72139Y45803D01*
X72094Y45777D01*
X72087D01*
X72081Y45764D01*
X72042Y45731D01*
X71990Y45679D01*
X71932Y45608D01*
X71867Y45524D01*
X71815Y45420D01*
X71776Y45297D01*
X71770Y45233D01*
X71764Y45168D01*
Y45161D01*
Y45155D01*
Y45135D01*
X71770Y45110D01*
X71776Y45038D01*
X71796Y44954D01*
X71828Y44857D01*
X71874Y44753D01*
X71938Y44650D01*
X72029Y44546D01*
X72042Y44533D01*
X72081Y44507D01*
X72139Y44462D01*
X72217Y44416D01*
X72314Y44371D01*
X72431Y44326D01*
X72567Y44300D01*
X72716Y44287D01*
X72761D01*
X72793Y44293D01*
X72839D01*
X72884Y44306D01*
X73001Y44326D01*
X73137Y44365D01*
X73286Y44416D01*
X73441Y44494D01*
X73525Y44540D01*
X73603Y44591D01*
X73609D01*
X73616Y44604D01*
X73655Y44630D01*
X73707Y44682D01*
X73771Y44747D01*
X73843Y44831D01*
X73907Y44928D01*
X73966Y45038D01*
X74011Y45155D01*
X74018Y45168D01*
X74024Y45200D01*
X74030Y45226D01*
X74037Y45258D01*
X74043Y45297D01*
X74050Y45343D01*
X74056Y45395D01*
X74063Y45459D01*
Y45524D01*
X74069Y45602D01*
X74076Y45686D01*
X74082Y45783D01*
Y45887D01*
Y45997D01*
Y46340D01*
D02*
G37*
G36*
X60157D02*
X60150D01*
X60144Y46334D01*
X60124Y46327D01*
X60092Y46321D01*
X60059Y46308D01*
X60014Y46295D01*
X59962Y46282D01*
X59898Y46269D01*
X59826Y46249D01*
X59749Y46230D01*
X59664Y46204D01*
X59567Y46185D01*
X59464Y46159D01*
X59353Y46133D01*
X59230Y46101D01*
X59101Y46075D01*
X59094D01*
X59068Y46068D01*
X59036Y46062D01*
X58984Y46049D01*
X58926Y46036D01*
X58861Y46016D01*
X58719Y45978D01*
X58563Y45932D01*
X58408Y45887D01*
X58337Y45854D01*
X58272Y45828D01*
X58214Y45803D01*
X58168Y45777D01*
X58162D01*
X58155Y45764D01*
X58116Y45731D01*
X58065Y45679D01*
X58006Y45608D01*
X57941Y45524D01*
X57890Y45420D01*
X57851Y45297D01*
X57844Y45233D01*
X57838Y45168D01*
Y45161D01*
Y45155D01*
Y45135D01*
X57844Y45110D01*
X57851Y45038D01*
X57870Y44954D01*
X57903Y44857D01*
X57948Y44753D01*
X58013Y44650D01*
X58103Y44546D01*
X58116Y44533D01*
X58155Y44507D01*
X58214Y44462D01*
X58291Y44416D01*
X58389Y44371D01*
X58505Y44326D01*
X58641Y44300D01*
X58790Y44287D01*
X58835D01*
X58868Y44293D01*
X58913D01*
X58958Y44306D01*
X59075Y44326D01*
X59211Y44365D01*
X59360Y44416D01*
X59516Y44494D01*
X59600Y44540D01*
X59677Y44591D01*
X59684D01*
X59690Y44604D01*
X59729Y44630D01*
X59781Y44682D01*
X59846Y44747D01*
X59917Y44831D01*
X59982Y44928D01*
X60040Y45038D01*
X60085Y45155D01*
X60092Y45168D01*
X60098Y45200D01*
X60105Y45226D01*
X60111Y45258D01*
X60118Y45297D01*
X60124Y45343D01*
X60131Y45395D01*
X60137Y45459D01*
Y45524D01*
X60144Y45602D01*
X60150Y45686D01*
X60157Y45783D01*
Y45887D01*
Y45997D01*
Y46340D01*
D02*
G37*
G36*
X48019Y48549D02*
X47967D01*
X47928Y48542D01*
X47876Y48536D01*
X47818Y48529D01*
X47760Y48516D01*
X47688Y48497D01*
X47546Y48445D01*
X47468Y48413D01*
X47390Y48374D01*
X47306Y48329D01*
X47235Y48270D01*
X47157Y48205D01*
X47086Y48134D01*
X47080Y48128D01*
X47073Y48115D01*
X47054Y48089D01*
X47028Y48057D01*
X47002Y48018D01*
X46969Y47966D01*
X46937Y47908D01*
X46905Y47843D01*
X46866Y47765D01*
X46834Y47681D01*
X46808Y47590D01*
X46775Y47493D01*
X46756Y47383D01*
X46736Y47273D01*
X46723Y47150D01*
Y47020D01*
X49301D01*
Y47027D01*
Y47053D01*
X49295Y47091D01*
Y47143D01*
X49288Y47208D01*
X49275Y47279D01*
X49262Y47357D01*
X49243Y47441D01*
X49198Y47623D01*
X49126Y47810D01*
X49088Y47908D01*
X49036Y47992D01*
X48977Y48076D01*
X48913Y48154D01*
X48906Y48160D01*
X48893Y48173D01*
X48874Y48193D01*
X48848Y48218D01*
X48809Y48244D01*
X48770Y48277D01*
X48718Y48316D01*
X48660Y48355D01*
X48531Y48426D01*
X48382Y48491D01*
X48297Y48510D01*
X48207Y48529D01*
X48116Y48542D01*
X48019Y48549D01*
D02*
G37*
G36*
X47540Y36872D02*
X46328Y33549D01*
X48783D01*
X47540Y36872D01*
D02*
G37*
G36*
X38744Y37448D02*
X36807D01*
Y35175D01*
X38349D01*
X38452Y35182D01*
X38698D01*
X38834Y35188D01*
X39113Y35201D01*
X39249Y35208D01*
X39378Y35220D01*
X39495Y35233D01*
X39605Y35246D01*
X39696Y35259D01*
X39767Y35279D01*
X39774D01*
X39780Y35285D01*
X39819Y35298D01*
X39877Y35331D01*
X39955Y35369D01*
X40033Y35421D01*
X40117Y35486D01*
X40201Y35564D01*
X40272Y35661D01*
X40279Y35674D01*
X40305Y35713D01*
X40331Y35771D01*
X40369Y35849D01*
X40402Y35946D01*
X40434Y36063D01*
X40454Y36192D01*
X40460Y36335D01*
Y36341D01*
Y36354D01*
Y36380D01*
X40454Y36412D01*
Y36451D01*
X40447Y36490D01*
X40428Y36594D01*
X40402Y36710D01*
X40356Y36833D01*
X40298Y36950D01*
X40214Y37060D01*
Y37066D01*
X40201Y37073D01*
X40169Y37105D01*
X40117Y37151D01*
X40039Y37209D01*
X39942Y37267D01*
X39825Y37325D01*
X39689Y37377D01*
X39534Y37416D01*
X39508D01*
X39482Y37423D01*
X39450D01*
X39404Y37429D01*
X39353D01*
X39288Y37436D01*
X39113D01*
X39009Y37442D01*
X38886D01*
X38744Y37448D01*
D02*
G37*
G36*
X55765Y25227D02*
X55714D01*
X55655Y25214D01*
X55577Y25201D01*
X55493Y25175D01*
X55403Y25143D01*
X55305Y25091D01*
X55208Y25026D01*
X55195Y25020D01*
X55169Y24987D01*
X55124Y24936D01*
X55066Y24864D01*
X55008Y24767D01*
X54975Y24709D01*
X54943Y24644D01*
X54910Y24573D01*
X54884Y24489D01*
X54852Y24404D01*
X54826Y24314D01*
Y24307D01*
X54820Y24281D01*
X54813Y24242D01*
X54800Y24184D01*
X54787Y24113D01*
X54768Y24022D01*
X54755Y23912D01*
X54742Y23783D01*
X54722Y23640D01*
X54710Y23472D01*
X54690Y23290D01*
X54677Y23090D01*
X54671Y22863D01*
X54658Y22623D01*
X54651Y22358D01*
Y22073D01*
Y22066D01*
Y22053D01*
Y22034D01*
Y22002D01*
Y21969D01*
Y21924D01*
Y21814D01*
X54658Y21691D01*
Y21542D01*
X54664Y21380D01*
X54671Y21211D01*
X54677Y21030D01*
X54690Y20849D01*
X54703Y20667D01*
X54716Y20492D01*
X54735Y20324D01*
X54755Y20168D01*
X54781Y20026D01*
X54807Y19903D01*
Y19897D01*
X54813Y19877D01*
X54826Y19845D01*
X54839Y19806D01*
X54852Y19761D01*
X54871Y19709D01*
X54917Y19586D01*
X54975Y19456D01*
X55046Y19326D01*
X55124Y19210D01*
X55163Y19158D01*
X55208Y19119D01*
X55221Y19113D01*
X55254Y19087D01*
X55305Y19061D01*
X55370Y19022D01*
X55454Y18990D01*
X55545Y18957D01*
X55655Y18931D01*
X55765Y18925D01*
X55778D01*
X55817Y18931D01*
X55875Y18938D01*
X55953Y18951D01*
X56037Y18970D01*
X56135Y19009D01*
X56225Y19054D01*
X56322Y19119D01*
X56335Y19132D01*
X56361Y19158D01*
X56406Y19210D01*
X56465Y19281D01*
X56523Y19385D01*
X56556Y19443D01*
X56588Y19508D01*
X56620Y19579D01*
X56646Y19657D01*
X56679Y19741D01*
X56704Y19832D01*
Y19838D01*
X56711Y19864D01*
X56724Y19903D01*
X56730Y19961D01*
X56750Y20032D01*
X56763Y20123D01*
X56776Y20233D01*
X56795Y20363D01*
X56814Y20505D01*
X56828Y20667D01*
X56847Y20855D01*
X56860Y21056D01*
X56866Y21276D01*
X56879Y21522D01*
X56886Y21788D01*
Y22073D01*
Y22079D01*
Y22092D01*
Y22112D01*
Y22144D01*
Y22176D01*
Y22222D01*
Y22325D01*
X56879Y22455D01*
Y22604D01*
X56873Y22759D01*
X56866Y22934D01*
X56860Y23109D01*
X56847Y23290D01*
X56834Y23472D01*
X56814Y23647D01*
X56802Y23815D01*
X56776Y23977D01*
X56750Y24113D01*
X56724Y24236D01*
Y24242D01*
X56717Y24262D01*
X56704Y24294D01*
X56698Y24333D01*
X56679Y24379D01*
X56659Y24430D01*
X56614Y24553D01*
X56556Y24690D01*
X56484Y24819D01*
X56406Y24936D01*
X56361Y24987D01*
X56316Y25026D01*
X56303Y25033D01*
X56277Y25059D01*
X56225Y25091D01*
X56160Y25130D01*
X56076Y25162D01*
X55985Y25195D01*
X55875Y25221D01*
X55765Y25227D01*
D02*
G37*
%LPD*%
M02*
