G04*
G04 #@! TF.GenerationSoftware,Altium Limited,Altium Designer,26.3.0 (6)*
G04*
G04 Layer_Physical_Order=2*
G04 Layer_Color=16711680*
%FSLAX44Y44*%
%MOMM*%
G71*
G04*
G04 #@! TF.SameCoordinates,D98659AE-797A-407F-9924-57214BFE1277*
G04*
G04*
G04 #@! TF.FilePolarity,Positive*
G04*
G01*
G75*
%ADD18C,0.2000*%
%ADD19C,0.4000*%
D18*
X30000Y17000D02*
G03*
X103000Y90000I0J73000D01*
G01*
X30029Y37029D02*
G03*
X83000Y90000I-179J53150D01*
G01*
X29855Y37000D02*
G03*
X30000Y37000I0J43145D01*
G01*
X83000Y90000D02*
G03*
X83000Y90145I-43145J145D01*
G01*
X30000Y21000D02*
G03*
X99000Y90000I0J69000D01*
G01*
X30000Y25000D02*
G03*
X95000Y90000I0J65000D01*
G01*
X30000Y29000D02*
G03*
X91000Y90000I0J61000D01*
G01*
X30000Y33000D02*
G03*
X87000Y90000I0J57000D01*
G01*
X30000Y41000D02*
G03*
X79000Y90000I0J49000D01*
G01*
X30000Y45000D02*
G03*
X75000Y90000I0J45000D01*
G01*
X30000Y49000D02*
G03*
X71000Y90000I0J41000D01*
G01*
X30000Y53000D02*
G03*
X67000Y90000I0J37000D01*
G01*
X16000Y17000D02*
X30000D01*
X83000Y90145D02*
Y107500D01*
X12500Y37000D02*
X29855D01*
X103000Y90000D02*
Y104000D01*
X99000Y90000D02*
Y107500D01*
X95000Y90000D02*
Y104000D01*
X91000Y90000D02*
Y107500D01*
X87000Y90000D02*
Y104000D01*
X79000Y90000D02*
Y104000D01*
X75000Y90000D02*
Y107500D01*
X71000Y90000D02*
Y104000D01*
X67000Y90000D02*
Y107500D01*
X12500Y21000D02*
X30000D01*
X16000Y25000D02*
X30000D01*
X12500Y29000D02*
X30000D01*
X16000Y33000D02*
X30000D01*
X16000Y41000D02*
X30000D01*
X12500Y45000D02*
X30000D01*
X16000Y49000D02*
X30000D01*
X12500Y53000D02*
X30000D01*
D19*
X12500Y21000D02*
D03*
Y45000D02*
D03*
Y37000D02*
D03*
X16000Y41000D02*
D03*
Y33000D02*
D03*
Y17000D02*
D03*
Y25000D02*
D03*
X12500Y29000D02*
D03*
X103000Y104000D02*
D03*
X99000Y107500D02*
D03*
X95000Y104000D02*
D03*
X91000Y107500D02*
D03*
X87000Y104000D02*
D03*
X83000Y107500D02*
D03*
X79000Y104000D02*
D03*
X75000Y107500D02*
D03*
X71000Y104000D02*
D03*
X67000Y107500D02*
D03*
X12500Y53000D02*
D03*
X16000Y49000D02*
D03*
M02*
