G04*
G04 #@! TF.GenerationSoftware,Altium Limited,Altium Designer,26.3.0 (6)*
G04*
G04 Layer_Physical_Order=1*
G04 Layer_Color=255*
%FSLAX44Y44*%
%MOMM*%
G71*
G04*
G04 #@! TF.SameCoordinates,D98659AE-797A-407F-9924-57214BFE1277*
G04*
G04*
G04 #@! TF.FilePolarity,Positive*
G04*
G01*
G75*
%ADD10R,0.3500X0.4400*%
%ADD11R,0.2200X0.6600*%
%ADD12R,0.4400X0.3500*%
%ADD13R,0.6600X0.2200*%
%ADD18C,0.2000*%
%ADD19C,0.4000*%
D10*
X57500Y105000D02*
D03*
X112500Y105001D02*
D03*
D11*
X83000Y96450D02*
D03*
X87000D02*
D03*
X79000D02*
D03*
X91000D02*
D03*
X67000D02*
D03*
X71000D02*
D03*
X75000D02*
D03*
X103000Y113550D02*
D03*
X99000D02*
D03*
X95000D02*
D03*
X91000D02*
D03*
X87000D02*
D03*
X83000D02*
D03*
X79000D02*
D03*
X75000D02*
D03*
X71000D02*
D03*
X67000D02*
D03*
X103000Y96450D02*
D03*
X99000D02*
D03*
X95000D02*
D03*
D12*
X15000Y62500D02*
D03*
X15001Y7500D02*
D03*
D13*
X6450Y37000D02*
D03*
Y33000D02*
D03*
Y41000D02*
D03*
Y29000D02*
D03*
Y53000D02*
D03*
Y49000D02*
D03*
Y45000D02*
D03*
X23550Y17000D02*
D03*
Y21000D02*
D03*
Y25000D02*
D03*
Y29000D02*
D03*
Y33000D02*
D03*
Y37000D02*
D03*
Y41000D02*
D03*
Y45000D02*
D03*
Y49000D02*
D03*
Y53000D02*
D03*
X6450Y17000D02*
D03*
Y21000D02*
D03*
Y25000D02*
D03*
D18*
X30000Y21000D02*
G03*
X99000Y90000I0J69000D01*
G01*
X30000Y17000D02*
G03*
X103000Y90000I0J73000D01*
G01*
X30000Y25000D02*
G03*
X95000Y90000I0J65000D01*
G01*
X30000Y29000D02*
G03*
X91000Y90000I0J61000D01*
G01*
X30000Y33000D02*
G03*
X87000Y90000I0J57000D01*
G01*
X30000Y37000D02*
G03*
X83000Y90000I0J53000D01*
G01*
X30000Y41000D02*
G03*
X79000Y90000I0J49000D01*
G01*
X30000Y45000D02*
G03*
X75000Y90000I0J45000D01*
G01*
X30000Y49000D02*
G03*
X71000Y90000I0J41000D01*
G01*
X30000Y53000D02*
G03*
X67000Y90000I0J37000D01*
G01*
X6450Y21000D02*
X12500D01*
X6450Y45000D02*
X12500D01*
X6450Y37000D02*
X12500D01*
X6450Y41000D02*
X16000D01*
X6450Y17000D02*
X16000D01*
X6450Y33000D02*
X16000D01*
X6450Y25000D02*
X16000D01*
X6450Y29000D02*
X12500D01*
X67000Y90000D02*
Y96450D01*
X23550Y53000D02*
X30000D01*
X71000Y90000D02*
Y96450D01*
X23550Y49000D02*
X30000D01*
X103000Y90000D02*
Y96450D01*
X99000Y90000D02*
Y96450D01*
X95000Y90000D02*
Y96450D01*
X91000Y90000D02*
Y96450D01*
X87000Y90000D02*
Y96450D01*
X83000Y90000D02*
Y96450D01*
X79000Y90000D02*
Y96450D01*
X75000Y90000D02*
Y96450D01*
X23550Y17000D02*
X30000D01*
X23550Y21000D02*
X30000D01*
X23550Y25000D02*
X30000D01*
X23550Y29000D02*
X30000D01*
X23550Y33000D02*
X30000D01*
X23550Y37000D02*
X30000D01*
X23550Y41000D02*
X30000D01*
X23550Y45000D02*
X30000D01*
X91000Y107500D02*
Y113550D01*
X79000Y104000D02*
Y113550D01*
X75000Y107500D02*
Y113550D01*
X71000Y104000D02*
Y113550D01*
X67000Y107500D02*
Y113550D01*
X103000Y104000D02*
Y113550D01*
X95000Y104000D02*
Y113550D01*
X99000Y107500D02*
Y113550D01*
X87000Y104000D02*
Y113550D01*
X83000Y107500D02*
Y113550D01*
X6450Y53000D02*
X12500D01*
X6450Y49000D02*
X16000D01*
D19*
X12500Y21000D02*
D03*
Y45000D02*
D03*
Y37000D02*
D03*
X16000Y41000D02*
D03*
Y33000D02*
D03*
Y17000D02*
D03*
Y25000D02*
D03*
X12500Y29000D02*
D03*
X103000Y104000D02*
D03*
X99000Y107500D02*
D03*
X95000Y104000D02*
D03*
X91000Y107500D02*
D03*
X87000Y104000D02*
D03*
X83000Y107500D02*
D03*
X79000Y104000D02*
D03*
X75000Y107500D02*
D03*
X71000Y104000D02*
D03*
X67000Y107500D02*
D03*
X12500Y53000D02*
D03*
X16000Y49000D02*
D03*
M02*
