G04*
G04 #@! TF.GenerationSoftware,Altium Limited,Altium Designer,26.3.0 (6)*
G04*
G04 Layer_Color=16711935*
%FSLAX44Y44*%
%MOMM*%
G71*
G04*
G04 #@! TF.SameCoordinates,D98659AE-797A-407F-9924-57214BFE1277*
G04*
G04*
G04 #@! TF.FilePolarity,Positive*
G04*
G01*
G75*
G36*
X30000Y0D02*
X10000Y0D01*
X9015Y0D01*
X7083Y384D01*
X5263Y1138D01*
X3625Y2232D01*
X2233Y3625D01*
X1138Y5263D01*
X384Y7083D01*
X0Y9015D01*
Y10000D01*
Y10000D01*
Y60000D01*
Y60985D01*
X384Y62917D01*
X1138Y64737D01*
X2233Y66375D01*
X3625Y67767D01*
X5263Y68862D01*
X7083Y69616D01*
X9015Y70000D01*
X10000D01*
X10000Y70000D01*
X30000Y70000D01*
Y0D01*
D02*
G37*
G36*
X112917Y119616D02*
X114737Y118862D01*
X116375Y117767D01*
X117767Y116375D01*
X118862Y114737D01*
X119615Y112917D01*
X120000Y110985D01*
X120000Y110000D01*
X120000Y110000D01*
X120000Y90000D01*
X50000D01*
Y110000D01*
X50000Y110985D01*
X50384Y112917D01*
X51138Y114737D01*
X52232Y116375D01*
X53625Y117767D01*
X55263Y118862D01*
X57083Y119616D01*
X59015Y120000D01*
X60000D01*
X110000Y120000D01*
X110985D01*
X112917Y119616D01*
D02*
G37*
M02*
